<svg xmlns="http://www.w3.org/2000/svg" width="192.4" height="30.72" viewBox="0 0 192.4 30.72">
  <defs>
    <style>
      .cls-1 {
        fill-rule: evenodd;
      }
    </style>
  </defs>
  <path id="Volvo_XC40_with_Pedestrian_Detection" data-name="Volvo XC40  with Pedestrian Detection" class="cls-1" d="M1624.5,1373.15l3.9-10.91h-2.27l-1.68,5.26c-0.38,1.13-.64,1.92-0.76,2.36s-0.23.84-.31,1.18h-0.03c-0.08-.35-0.18-0.74-0.31-1.17s-0.39-1.21-.78-2.35l-1.75-5.28h-2.32l3.89,10.91h2.42Zm11.53-6.13a3.206,3.206,0,0,0-1.38-1.44,4.328,4.328,0,0,0-2.15-.51,4.279,4.279,0,0,0-2.15.52,3.568,3.568,0,0,0-1.41,1.47,4.626,4.626,0,0,0-.5,2.19,4.916,4.916,0,0,0,.47,2.2,3.31,3.31,0,0,0,1.39,1.43,4.766,4.766,0,0,0,4.29-.02,3.449,3.449,0,0,0,1.42-1.46,4.667,4.667,0,0,0,.49-2.18A4.728,4.728,0,0,0,1636.03,1367.02Zm-1.8,3.54a2.094,2.094,0,0,1-.69.9,1.785,1.785,0,0,1-1.07.32,1.819,1.819,0,0,1-1.06-.32,1.857,1.857,0,0,1-.7-0.89,3.519,3.519,0,0,1-.24-1.34,3.466,3.466,0,0,1,.24-1.33,2.006,2.006,0,0,1,.69-0.89,1.76,1.76,0,0,1,1.07-.32,1.844,1.844,0,0,1,1.07.31,1.952,1.952,0,0,1,.69.89A3.833,3.833,0,0,1,1634.23,1370.56Zm3.99,2.59h1.92v-11.29h-1.92v11.29Zm8.32,0,2.96-7.84h-2.13l-1.02,3.17c-0.16.54-.32,1.07-0.47,1.57s-0.27.91-.35,1.23h-0.04q-0.165-.645-0.39-1.38c-0.15-.49-0.3-0.96-0.45-1.42l-1.08-3.17h-2.18l2.96,7.84h2.19Zm11.04-6.13a3.28,3.28,0,0,0-1.39-1.44,4.725,4.725,0,0,0-4.29.01,3.53,3.53,0,0,0-1.42,1.47,4.623,4.623,0,0,0-.49,2.19,4.785,4.785,0,0,0,.47,2.2,3.233,3.233,0,0,0,1.38,1.43,4.435,4.435,0,0,0,2.15.5,4.385,4.385,0,0,0,2.15-.52,3.484,3.484,0,0,0,1.41-1.46,4.67,4.67,0,0,0,.5-2.18A4.856,4.856,0,0,0,1657.58,1367.02Zm-1.8,3.54a2.094,2.094,0,0,1-.69.9,1.829,1.829,0,0,1-1.07.32,1.851,1.851,0,0,1-1.07-.32,1.9,1.9,0,0,1-.69-0.89,3.519,3.519,0,0,1-.24-1.34,3.466,3.466,0,0,1,.24-1.33,2.006,2.006,0,0,1,.69-0.89,1.72,1.72,0,0,1,1.07-.32,1.813,1.813,0,0,1,1.06.31,1.906,1.906,0,0,1,.7.89A3.833,3.833,0,0,1,1655.78,1370.56Zm6.93,2.59h2.35l2.62-4.11,2.55,4.11h2.51l-3.75-5.76,3.4-5.15h-2.32l-2.28,3.58-2.2-3.58h-2.52l3.41,5.23Zm18.54-3.66a2.744,2.744,0,0,1-2.79,2.05,2.781,2.781,0,0,1-1.59-.47,3.112,3.112,0,0,1-1.09-1.34,5.571,5.571,0,0,1-.01-4.07,3.105,3.105,0,0,1,1.07-1.35,2.686,2.686,0,0,1,1.56-.47,2.743,2.743,0,0,1,1.66.5,2.831,2.831,0,0,1,1.03,1.44l1.96-.56a4.624,4.624,0,0,0-1.74-2.4,4.894,4.894,0,0,0-2.88-.84,5.193,5.193,0,0,0-2.67.72,4.848,4.848,0,0,0-1.9,2.01,6.5,6.5,0,0,0-.66,3,6.67,6.67,0,0,0,.65,3.01,4.753,4.753,0,0,0,1.85,1.99,5.285,5.285,0,0,0,2.73.7,5.1,5.1,0,0,0,3.01-.88,4.73,4.73,0,0,0,1.74-2.55Zm10.63,3.66v-2.61h1.78v-1.68h-1.78v-6.62h-3.02l-4.37,6.7v1.6h5.33v2.61h2.06Zm-5.42-4.24,3.32-5.07h0.08c-0.02.5-.03,0.97-0.04,1.41v3.61c-0.69.01-1.3,0.02-1.85,0.03s-1.06.01-1.51,0.02h0Zm17.47-4.32a4.093,4.093,0,0,0-1.55-1.94,4.456,4.456,0,0,0-2.49-.67,4.565,4.565,0,0,0-2.5.68,4.2,4.2,0,0,0-1.61,1.96,7.717,7.717,0,0,0-.56,3.11,8.082,8.082,0,0,0,.52,3.07,3.978,3.978,0,0,0,1.55,1.94,4.433,4.433,0,0,0,2.49.67,4.586,4.586,0,0,0,2.49-.67,4.3,4.3,0,0,0,1.62-1.97,7.891,7.891,0,0,0,.56-3.11A8.281,8.281,0,0,0,1703.93,1364.59Zm-2.27,6.06a2.034,2.034,0,0,1-1.84.97,1.985,1.985,0,0,1-1.81-.98,5.774,5.774,0,0,1-.6-2.96,5.716,5.716,0,0,1,.6-2.94,1.988,1.988,0,0,1,1.81-.96,2.014,2.014,0,0,1,1.84.97,5.774,5.774,0,0,1,.6,2.96A5.716,5.716,0,0,1,1701.66,1370.65Zm-126.34,21.7,2.64-7.84h-2.05l-1.04,3.6c-0.11.43-.22,0.83-0.32,1.22s-0.19.73-.25,1.05h-0.03c-0.1-.39-0.2-0.78-0.31-1.17s-0.21-.76-0.32-1.1l-1.13-3.6h-1.81l-1.11,3.59c-0.09.29-.19,0.63-0.28,1s-0.19.79-.29,1.28h-0.03c-0.09-.41-0.18-0.81-0.28-1.18s-0.21-.74-0.33-1.09l-1.14-3.6h-2.09l2.65,7.84h2.13l1.12-3.5c0.1-.32.18-0.64,0.26-0.95s0.14-.65.2-0.99h0.04q0.09,0.51.21,0.99,0.12,0.465.27,0.93l1.15,3.52h2.14Zm3.95-8.91h1.95v-2.19h-1.95v2.19Zm1.94,8.91v-7.84h-1.92v7.84h1.92Zm2.57-6.3v3.97a3.826,3.826,0,0,0,.24,1.47,1.513,1.513,0,0,0,.73.82,2.891,2.891,0,0,0,1.35.27,5.119,5.119,0,0,0,.87-0.08,2.575,2.575,0,0,0,.72-0.2v-1.52a1.9,1.9,0,0,1-.5.13,4.071,4.071,0,0,1-.61.05,1.338,1.338,0,0,1-.38-0.04,0.681,0.681,0,0,1-.26-0.15,0.816,0.816,0,0,1-.14-0.26,1.738,1.738,0,0,1-.07-0.44q-0.03-.3-0.03-0.93v-3.09h1.99v-1.54h-1.99v-2.81l-1.92.38v2.43h-1.24v1.54h1.24Zm5.4,6.3h1.92v-3.85a4.526,4.526,0,0,1,.16-1.35,2,2,0,0,1,.5-0.86,1.436,1.436,0,0,1,.51-0.32,1.766,1.766,0,0,1,.69-0.13,1.741,1.741,0,0,1,.82.18,1.268,1.268,0,0,1,.51.54,2.428,2.428,0,0,1,.16.56,8.215,8.215,0,0,1,.05,1.07v4.16h1.92v-4.86a4.263,4.263,0,0,0-.34-1.79,2.289,2.289,0,0,0-.99-1.07,3.277,3.277,0,0,0-1.59-.36,3.228,3.228,0,0,0-1.43.32,2.567,2.567,0,0,0-1.03.9h-0.02a11.735,11.735,0,0,0,.08-1.52v-2.91h-1.92v11.29Zm13.76,0h2.08v-3.82c0.48,0.01,1.2.01,2.16,0.01a7.39,7.39,0,0,0,2.62-.41,3.353,3.353,0,0,0,1.6-1.22,3.39,3.39,0,0,0,.54-1.95,3.55,3.55,0,0,0-.51-1.96,2.96,2.96,0,0,0-1.53-1.19,7.139,7.139,0,0,0-2.6-.4l-4.36.03v10.91Zm6.54-6.33a1.68,1.68,0,0,1-.82.6,4.261,4.261,0,0,1-1.41.2c-1.02,0-1.76-.01-2.23-0.02v-3.63c0.46-.01,1.2-0.02,2.23-0.02a4.572,4.572,0,0,1,1.41.19,1.567,1.567,0,0,1,.82.6,1.881,1.881,0,0,1,.26,1.05A1.812,1.812,0,0,1,1609.48,1386.02Zm5.42,1.63a2.828,2.828,0,0,1,.32-1.04,1.544,1.544,0,0,1,.64-0.65,1.913,1.913,0,0,1,.91-0.22,1.728,1.728,0,0,1,.92.24,1.68,1.68,0,0,1,.61.68,2.192,2.192,0,0,1,.24.99h-3.64Zm3.93,4.6a4.731,4.731,0,0,0,1.6-1l-0.83-1.22a3.355,3.355,0,0,1-1.13.79,3.643,3.643,0,0,1-1.38.25,2.465,2.465,0,0,1-1.12-.24,1.773,1.773,0,0,1-.76-0.7,2.781,2.781,0,0,1-.35-1.15h5.64a4.021,4.021,0,0,0,.08-0.85,4.457,4.457,0,0,0-.45-2.03,3.162,3.162,0,0,0-1.3-1.36,4.579,4.579,0,0,0-4.14.05,3.46,3.46,0,0,0-1.39,1.47,4.744,4.744,0,0,0-.48,2.19,4.828,4.828,0,0,0,.48,2.23,3.3,3.3,0,0,0,1.42,1.42,4.785,4.785,0,0,0,2.22.48A5.286,5.286,0,0,0,1618.83,1392.25Zm10.88,0.1c-0.02-.81-0.04-1.47-0.04-1.97s-0.01-1.15-.01-1.93v-7.39h-1.92v2.91c0,0.5.02,0.95,0.05,1.36h-0.02a2.365,2.365,0,0,0-.95-0.79,3.175,3.175,0,0,0-1.34-.27,3.55,3.55,0,0,0-1.92.53,3.439,3.439,0,0,0-1.28,1.48,5.024,5.024,0,0,0-.44,2.18,5.253,5.253,0,0,0,.41,2.15,3.216,3.216,0,0,0,1.21,1.45,3.375,3.375,0,0,0,1.86.52,3.309,3.309,0,0,0,1.5-.33,2.407,2.407,0,0,0,1.03-.94h0.02l0.03,1.04h1.81Zm-1.92-3.79a3.505,3.505,0,0,1-.23,1.3,1.864,1.864,0,0,1-.66.86,1.934,1.934,0,0,1-2.1-.02,1.959,1.959,0,0,1-.69-0.91,4.082,4.082,0,0,1-.01-2.73,1.927,1.927,0,0,1,.67-0.91,1.739,1.739,0,0,1,1.05-.31,1.8,1.8,0,0,1,1.02.3,1.919,1.919,0,0,1,.7.85,3.275,3.275,0,0,1,.25,1.3v0.27Zm5.66-.91a2.828,2.828,0,0,1,.32-1.04,1.544,1.544,0,0,1,.64-0.65,1.943,1.943,0,0,1,.91-0.22,1.728,1.728,0,0,1,.92.24,1.7,1.7,0,0,1,.62.68,2.192,2.192,0,0,1,.24.99h-3.65Zm3.94,4.6a4.83,4.83,0,0,0,1.6-1l-0.84-1.22a3.317,3.317,0,0,1-1.12.79,3.732,3.732,0,0,1-1.39.25,2.465,2.465,0,0,1-1.12-.24,1.831,1.831,0,0,1-.76-0.7,2.638,2.638,0,0,1-.34-1.15h5.63a4.021,4.021,0,0,0,.08-0.85,4.457,4.457,0,0,0-.45-2.03,3.2,3.2,0,0,0-1.29-1.36,4.211,4.211,0,0,0-2.04-.47,4.153,4.153,0,0,0-2.11.52,3.46,3.46,0,0,0-1.39,1.47,5.278,5.278,0,0,0,.01,4.42,3.226,3.226,0,0,0,1.41,1.42,4.8,4.8,0,0,0,2.23.48A5.366,5.366,0,0,0,1637.39,1392.25Zm2.89-.83a6.7,6.7,0,0,0,1.76.87,6.226,6.226,0,0,0,1.86.29,4.709,4.709,0,0,0,1.78-.32,2.45,2.45,0,0,0,1.16-.88,2.269,2.269,0,0,0,.4-1.33,2.34,2.34,0,0,0-.26-1.16,2.062,2.062,0,0,0-.82-0.81,6.01,6.01,0,0,0-1.64-.54,10.378,10.378,0,0,1-1.4-.34,1.255,1.255,0,0,1-.45-0.3,0.636,0.636,0,0,1-.15-0.42,0.592,0.592,0,0,1,.15-0.41,0.8,0.8,0,0,1,.41-0.25,2.105,2.105,0,0,1,.64-0.09,3.787,3.787,0,0,1,1.24.2,3.7,3.7,0,0,1,1.12.57l0.73-1.35a5.333,5.333,0,0,0-1.45-.65,5.893,5.893,0,0,0-1.6-.23,4.62,4.62,0,0,0-1.68.29,2.522,2.522,0,0,0-1.12.83,2.135,2.135,0,0,0-.39,1.28,2.4,2.4,0,0,0,.26,1.14,2.076,2.076,0,0,0,.81.8,5.694,5.694,0,0,0,1.63.54,11.235,11.235,0,0,1,1.39.35,1.073,1.073,0,0,1,.46.29,0.6,0.6,0,0,1,.16.43,0.721,0.721,0,0,1-.35.64,1.975,1.975,0,0,1-1.01.21,4.456,4.456,0,0,1-1.46-.26,5.193,5.193,0,0,1-1.39-.78Zm9.05-5.37v3.97a3.826,3.826,0,0,0,.24,1.47,1.552,1.552,0,0,0,.73.82,2.891,2.891,0,0,0,1.35.27,5.119,5.119,0,0,0,.87-0.08,2.481,2.481,0,0,0,.72-0.2v-1.52a1.9,1.9,0,0,1-.5.13,4.071,4.071,0,0,1-.61.05,1.338,1.338,0,0,1-.38-0.04,0.681,0.681,0,0,1-.26-0.15,0.816,0.816,0,0,1-.14-0.26,1.738,1.738,0,0,1-.07-0.44q-0.03-.3-0.03-0.93v-3.09h1.99v-1.54h-1.99v-2.81l-1.92.38v2.43h-1.24v1.54h1.24Zm7.32,6.3v-2.65a6.933,6.933,0,0,1,.18-1.88,2.228,2.228,0,0,1,.57-0.99,1.8,1.8,0,0,1,.67-0.43,2.617,2.617,0,0,1,.92-0.14c0.16,0,.31,0,0.46.01v-1.97c-0.12-.01-0.26-0.01-0.43-0.01a2.5,2.5,0,0,0-1.38.4,3.323,3.323,0,0,0-1.09,1.23h-0.01l-0.05-1.41h-1.81c0.02,1.03.04,1.79,0.04,2.29s0.01,1.07.01,1.71v3.84h1.92Zm4.09-8.91h1.95v-2.19h-1.95v2.19Zm1.94,8.91v-7.84h-1.92v7.84h1.92Zm2.35-.41a2.981,2.981,0,0,0,2,.64,3.225,3.225,0,0,0,1.4-.3,2.873,2.873,0,0,0,1.08-.89h0.02l0.03,0.96h1.81c-0.03-1.14-.05-1.92-0.05-2.34v-2.89a2.643,2.643,0,0,0-.84-2.12,3.632,3.632,0,0,0-2.46-.73,5.024,5.024,0,0,0-1.93.37,4.72,4.72,0,0,0-1.62,1.07l0.93,1.15a3.4,3.4,0,0,1,1.11-.84,3.243,3.243,0,0,1,1.31-.28,1.707,1.707,0,0,1,1.17.36,1.334,1.334,0,0,1,.41,1.05v0.34a12.668,12.668,0,0,0-2.29.17,4.972,4.972,0,0,0-1.58.51,2.4,2.4,0,0,0-.93.84A2.466,2.466,0,0,0,1665.03,1391.94Zm4.37-3.11v0.34a1.943,1.943,0,0,1-.24.95,1.866,1.866,0,0,1-1.63.97,1.344,1.344,0,0,1-.9-0.27,1.061,1.061,0,0,1-.16-1.32,1.121,1.121,0,0,1,.52-0.38,3.814,3.814,0,0,1,.95-0.22,14.088,14.088,0,0,1,1.46-.07h0Zm11.22,3.52v-4.86a3.418,3.418,0,0,0-.75-2.4,2.762,2.762,0,0,0-2.17-.82,3.122,3.122,0,0,0-1.47.34,2.693,2.693,0,0,0-1.04.94h-0.01l-0.04-1.04h-1.8c0.01,0.28.02,0.56,0.02,0.84s0.01,0.58.02,0.9v6.1h1.92v-3.85a4.881,4.881,0,0,1,.16-1.35,2,2,0,0,1,.5-0.86,1.436,1.436,0,0,1,.51-0.32,1.8,1.8,0,0,1,.69-0.13,1.741,1.741,0,0,1,.82.18,1.268,1.268,0,0,1,.51.54,2.428,2.428,0,0,1,.16.56,8.215,8.215,0,0,1,.05,1.07v4.16h1.92Zm6.52,0c1.25,0,2.51.01,3.76,0.02a8.45,8.45,0,0,0,2.61-.35,4.673,4.673,0,0,0,1.81-1.09,4.819,4.819,0,0,0,1.09-1.76,6.926,6.926,0,0,0,.38-2.32,6.4,6.4,0,0,0-.37-2.25,4.541,4.541,0,0,0-2.9-2.83,8.8,8.8,0,0,0-2.7-.35c-1.36,0-2.59.01-3.68,0.02v10.91Zm2.07-9.18c0.31-.01.83-0.02,1.55-0.02a6.35,6.35,0,0,1,1.76.19,2.631,2.631,0,0,1,1.06.66,3.279,3.279,0,0,1,.75,1.23,4.916,4.916,0,0,1,.27,1.67,5.138,5.138,0,0,1-.25,1.69,3.051,3.051,0,0,1-.74,1.23,2.473,2.473,0,0,1-.99.62,6.132,6.132,0,0,1-1.73.18c-0.5,0-1.06-.01-1.68-0.04v-7.41Zm11.1,4.48a3.03,3.03,0,0,1,.32-1.04,1.6,1.6,0,0,1,.64-0.65,1.943,1.943,0,0,1,.91-0.22,1.7,1.7,0,0,1,.92.24,1.634,1.634,0,0,1,.62.68,2.192,2.192,0,0,1,.24.99h-3.65Zm3.94,4.6a4.731,4.731,0,0,0,1.6-1l-0.83-1.22a3.355,3.355,0,0,1-1.13.79,3.659,3.659,0,0,1-1.39.25,2.494,2.494,0,0,1-1.12-.24,1.831,1.831,0,0,1-.76-0.7,2.779,2.779,0,0,1-.34-1.15h5.63a3.453,3.453,0,0,0,.08-0.85,4.457,4.457,0,0,0-.45-2.03,3.14,3.14,0,0,0-1.29-1.36,4.6,4.6,0,0,0-4.15.05,3.521,3.521,0,0,0-1.39,1.47,4.744,4.744,0,0,0-.48,2.19,4.828,4.828,0,0,0,.49,2.23,3.3,3.3,0,0,0,1.42,1.42,4.785,4.785,0,0,0,2.22.48A5.366,5.366,0,0,0,1704.25,1392.25Zm3.85-6.2v3.97a4.046,4.046,0,0,0,.23,1.47,1.53,1.53,0,0,0,.74.82,2.835,2.835,0,0,0,1.35.27,5,5,0,0,0,.86-0.08,2.481,2.481,0,0,0,.72-0.2v-1.52a1.819,1.819,0,0,1-.49.13,4.3,4.3,0,0,1-.61.05,1.415,1.415,0,0,1-.39-0.04,0.644,0.644,0,0,1-.25-0.15,0.841,0.841,0,0,1-.15-0.26,2.363,2.363,0,0,1-.07-0.44c-0.01-.2-0.02-0.51-0.02-0.93v-3.09H1712v-1.54h-1.98v-2.81l-1.92.38v2.43h-1.25v1.54h1.25Zm6.94,1.6a2.828,2.828,0,0,1,.32-1.04,1.544,1.544,0,0,1,.64-0.65,1.913,1.913,0,0,1,.91-0.22,1.728,1.728,0,0,1,.92.24,1.68,1.68,0,0,1,.61.68,2.192,2.192,0,0,1,.24.99h-3.64Zm3.93,4.6a4.731,4.731,0,0,0,1.6-1l-0.83-1.22a3.355,3.355,0,0,1-1.13.79,3.643,3.643,0,0,1-1.38.25,2.465,2.465,0,0,1-1.12-.24,1.773,1.773,0,0,1-.76-0.7,2.781,2.781,0,0,1-.35-1.15h5.64a4.021,4.021,0,0,0,.08-0.85,4.457,4.457,0,0,0-.45-2.03,3.162,3.162,0,0,0-1.3-1.36,4.579,4.579,0,0,0-4.14.05,3.46,3.46,0,0,0-1.39,1.47,4.744,4.744,0,0,0-.48,2.19,4.828,4.828,0,0,0,.48,2.23,3.3,3.3,0,0,0,1.42,1.42,4.785,4.785,0,0,0,2.22.48A5.326,5.326,0,0,0,1718.97,1392.25Zm8.78-2.65a2.258,2.258,0,0,1-.73,1.03,1.755,1.755,0,0,1-1.09.35,1.705,1.705,0,0,1-1.03-.32,1.852,1.852,0,0,1-.66-0.89,3.539,3.539,0,0,1-.23-1.35,3.786,3.786,0,0,1,.22-1.37,1.778,1.778,0,0,1,.66-0.88,1.659,1.659,0,0,1,.99-0.3,1.755,1.755,0,0,1,1.09.35,2.206,2.206,0,0,1,.67,1.03l1.74-.71a3.325,3.325,0,0,0-1.3-1.7,4.457,4.457,0,0,0-4.27-.05,3.453,3.453,0,0,0-1.36,1.47,4.744,4.744,0,0,0-.48,2.19,4.964,4.964,0,0,0,.46,2.18,3.173,3.173,0,0,0,1.34,1.44,4.149,4.149,0,0,0,2.09.51,3.921,3.921,0,0,0,2.17-.58,4.164,4.164,0,0,0,1.46-1.81Zm3.81-3.55v3.97a3.826,3.826,0,0,0,.24,1.47,1.552,1.552,0,0,0,.73.82,2.891,2.891,0,0,0,1.35.27,5.119,5.119,0,0,0,.87-0.08,2.481,2.481,0,0,0,.72-0.2v-1.52a1.9,1.9,0,0,1-.5.13,4.071,4.071,0,0,1-.61.05,1.338,1.338,0,0,1-.38-0.04,0.681,0.681,0,0,1-.26-0.15,0.816,0.816,0,0,1-.14-0.26,1.738,1.738,0,0,1-.07-0.44q-0.03-.3-0.03-0.93v-3.09h1.99v-1.54h-1.99v-2.81l-1.92.38v2.43h-1.24v1.54h1.24Zm5.37-2.61h1.95v-2.19h-1.95v2.19Zm1.93,8.91v-7.84h-1.92v7.84h1.92Zm9.29-6.13a3.206,3.206,0,0,0-1.38-1.44,4.745,4.745,0,0,0-4.3.01,3.568,3.568,0,0,0-1.41,1.47,4.626,4.626,0,0,0-.5,2.19,4.916,4.916,0,0,0,.47,2.2,3.31,3.31,0,0,0,1.39,1.43,4.422,4.422,0,0,0,2.14.5,4.358,4.358,0,0,0,2.15-.52,3.449,3.449,0,0,0,1.42-1.46,4.67,4.67,0,0,0,.5-2.18A4.729,4.729,0,0,0,1748.15,1386.22Zm-1.8,3.54a2.154,2.154,0,0,1-.68.9,1.838,1.838,0,0,1-1.08.32,1.819,1.819,0,0,1-1.06-.32,1.918,1.918,0,0,1-.7-0.89,3.519,3.519,0,0,1-.24-1.34,3.466,3.466,0,0,1,.24-1.33,2.006,2.006,0,0,1,.69-0.89,1.76,1.76,0,0,1,1.07-.32,1.844,1.844,0,0,1,1.07.31,1.952,1.952,0,0,1,.69.89A3.833,3.833,0,0,1,1746.35,1389.76Zm11.21,2.59v-4.86a3.465,3.465,0,0,0-.74-2.4,2.776,2.776,0,0,0-2.17-.82,3.066,3.066,0,0,0-1.47.34,2.559,2.559,0,0,0-1.04.94h-0.02l-0.03-1.04h-1.81c0.01,0.28.02,0.56,0.02,0.84s0.01,0.58.02,0.9,0.01,0.66.01,1.03v5.07h1.92v-3.85a4.931,4.931,0,0,1,.15-1.35,2,2,0,0,1,.5-0.86,1.4,1.4,0,0,1,.52-0.32,1.9,1.9,0,0,1,1.5.05,1.268,1.268,0,0,1,.51.54,2.017,2.017,0,0,1,.16.56,8.215,8.215,0,0,1,.05,1.07v4.16h1.92Z" transform="translate(-1565.16 -1361.84)"/>
</svg>
