<svg xmlns="http://www.w3.org/2000/svg" xmlns:xlink="http://www.w3.org/1999/xlink" width="949.41" height="73.7" viewBox="0 0 949.41 73.7"><defs><clipPath id="a" transform="translate(0 0)"><rect width="949.41" height="73.7" style="fill:none"/></clipPath></defs><title>volvo</title><polygon points="86.38 1.48 86.38 12.24 100.37 12.24 76.98 55.48 53.28 12.24 70.28 12.24 70.27 1.48 0.01 1.48 0 12.24 16.08 12.24 48.76 71.61 86.59 71.64 118.71 12.24 134.81 12.24 134.81 1.48 86.38 1.48" style="fill:#fff"/><g style="clip-path:url(#a)"><path d="M432.4,12.22V1.48h64.78V12.22H481.05V60.68h15c13.86,0,23-9.16,23-21.58h10.69V71.55H432.4V60.69h16.33l0-48.47Z" transform="translate(0 0)" style="fill:#fff"/><path d="M275.3,0c-32.53,0-49.81,16.23-49.81,36.59,0,20.65,16.64,37.11,50,37.11S325.3,57.24,325.3,36.59C325.3,16.23,307.84,0,275.3,0m-.36,62.55c-11.88-.21-17.1-13.34-16.87-26.39.23-13.51,6.7-25.29,17.83-25.1s17,12.2,16.76,25.71c-.22,12.74-5.48,26-17.72,25.78" transform="translate(0 0)" style="fill:#fff"/><polygon points="640.17 12.24 672.84 71.61 710.68 71.64 742.8 12.23 758.9 12.24 758.9 1.48 710.47 1.48 710.47 12.23 724.46 12.23 701.07 55.48 677.37 12.24 694.36 12.23 694.36 1.48 624.1 1.48 624.09 12.24 640.17 12.24" style="fill:#fff"/><path d="M899.41,0C866.87,0,849.6,16.23,849.6,36.59c0,20.65,16.63,37.11,50,37.11s49.81-16.46,49.81-37.11C949.41,16.23,932,0,899.41,0m-.36,62.55c-11.88-.21-17.11-13.34-16.88-26.39.24-13.51,6.7-25.29,17.83-25.1s17,12.2,16.77,25.71c-.23,12.74-5.49,26-17.72,25.78" transform="translate(0 0)" style="fill:#fff"/></g></svg>