<svg xmlns="http://www.w3.org/2000/svg" width="121.969" height="19.19" viewBox="0 0 121.969 19.19">
  <defs>
    <style>
      .cls-1 {
        fill-rule: evenodd;
      }
    </style>
  </defs>
  <path id="Volvo_XC40_with_Pedestrian_Detection_" data-name="Volvo XC40  with Pedestrian Detection  " class="cls-1" d="M485.887,2240.64l2.44-6.82h-1.42l-1.05,3.29c-0.24.71-.4,1.2-0.475,1.48s-0.142.52-.195,0.73h-0.02c-0.047-.22-0.11-0.46-0.19-0.73s-0.243-.75-0.49-1.47l-1.09-3.3h-1.45l2.43,6.82h1.51Zm7.311-3.83a2.072,2.072,0,0,0-.865-0.9,2.73,2.73,0,0,0-1.34-.32,2.655,2.655,0,0,0-1.345.33,2.241,2.241,0,0,0-.885.91,2.918,2.918,0,0,0-.31,1.37,3.025,3.025,0,0,0,.3,1.38,2,2,0,0,0,.865.89,2.727,2.727,0,0,0,1.34.31,2.652,2.652,0,0,0,1.345-.32,2.125,2.125,0,0,0,.885-0.91,2.918,2.918,0,0,0,.31-1.37A3.011,3.011,0,0,0,493.2,2236.81Zm-1.125,2.21a1.246,1.246,0,0,1-.43.56,1.079,1.079,0,0,1-.67.2,1.146,1.146,0,0,1-.665-0.19,1.234,1.234,0,0,1-.435-0.56,2.4,2.4,0,0,1,0-1.67,1.3,1.3,0,0,1,.43-0.56,1.214,1.214,0,0,1,1.335,0,1.205,1.205,0,0,1,.435.55,2.172,2.172,0,0,1,.15.84A2.12,2.12,0,0,1,492.073,2239.02Zm2.58,1.62h1.2v-7.06h-1.2v7.06Zm5.286,0,1.85-4.9h-1.33l-0.64,1.98c-0.1.34-.2,0.67-0.3,0.98s-0.168.57-.215,0.77h-0.03c-0.067-.26-0.147-0.55-0.24-0.86s-0.187-.6-0.28-0.89l-0.68-1.98h-1.36l1.85,4.9h1.37Zm6.985-3.83a2.072,2.072,0,0,0-.865-0.9,2.73,2.73,0,0,0-1.34-.32,2.655,2.655,0,0,0-1.345.33,2.241,2.241,0,0,0-.885.91,2.918,2.918,0,0,0-.31,1.37,3.025,3.025,0,0,0,.3,1.38,2,2,0,0,0,.865.89,2.727,2.727,0,0,0,1.34.31,2.652,2.652,0,0,0,1.345-.32,2.125,2.125,0,0,0,.885-0.91,2.918,2.918,0,0,0,.31-1.37A3.011,3.011,0,0,0,506.924,2236.81Zm-1.125,2.21a1.246,1.246,0,0,1-.43.56,1.079,1.079,0,0,1-.67.2,1.146,1.146,0,0,1-.665-0.19,1.234,1.234,0,0,1-.435-0.56,2.4,2.4,0,0,1,0-1.67,1.3,1.3,0,0,1,.43-0.56,1.214,1.214,0,0,1,1.335,0,1.205,1.205,0,0,1,.435.55,2.172,2.172,0,0,1,.15.84A2.12,2.12,0,0,1,505.8,2239.02Zm4.33,1.62h1.47l1.64-2.57,1.59,2.57h1.57l-2.34-3.6,2.12-3.22h-1.45l-1.42,2.24-1.38-2.24h-1.57l2.13,3.27Zm11.686-2.29a1.758,1.758,0,0,1-.64.95,1.81,1.81,0,0,1-1.1.33,1.7,1.7,0,0,1-1-.29,1.873,1.873,0,0,1-.68-0.84,3.447,3.447,0,0,1,0-2.54,1.989,1.989,0,0,1,.665-0.84,1.647,1.647,0,0,1,.975-0.3,1.806,1.806,0,0,1,1.04.31,1.774,1.774,0,0,1,.64.9l1.23-.35a2.957,2.957,0,0,0-1.09-1.5,3.129,3.129,0,0,0-1.8-.52,3.251,3.251,0,0,0-1.67.45,3.028,3.028,0,0,0-1.185,1.26,4.032,4.032,0,0,0-.415,1.87,4.094,4.094,0,0,0,.41,1.88,2.951,2.951,0,0,0,1.155,1.25,3.316,3.316,0,0,0,1.7.43,3.127,3.127,0,0,0,1.88-.55,2.9,2.9,0,0,0,1.09-1.59Zm6.732,2.29v-1.63h1.11v-1.05h-1.11v-4.14h-1.89l-2.73,4.19v1h3.33v1.63h1.29Zm-3.39-2.65,2.08-3.17h0.05c-0.014.32-.022,0.61-0.025,0.88s0,0.57,0,.89v1.37c-0.427.01-.812,0.02-1.155,0.02s-0.659.01-.945,0.01h0Zm11.012-2.7a2.544,2.544,0,0,0-.97-1.21,2.789,2.789,0,0,0-1.555-.42,2.843,2.843,0,0,0-1.56.42,2.656,2.656,0,0,0-1.01,1.23,4.873,4.873,0,0,0-.35,1.94,5.065,5.065,0,0,0,.325,1.92,2.518,2.518,0,0,0,.97,1.22,3.13,3.13,0,0,0,3.115-.01,2.662,2.662,0,0,0,1.01-1.23,4.856,4.856,0,0,0,.35-1.94A5.158,5.158,0,0,0,536.169,2235.29Zm-1.42,3.79a1.258,1.258,0,0,1-1.145.6,1.236,1.236,0,0,1-1.135-.61,3.581,3.581,0,0,1-.375-1.85,3.523,3.523,0,0,1,.375-1.83,1.37,1.37,0,0,1,2.28,0,3.63,3.63,0,0,1,.375,1.85A3.564,3.564,0,0,1,534.749,2239.08Zm-80.126,13.56,1.65-4.9h-1.28l-0.65,2.25c-0.074.27-.142,0.52-0.205,0.76s-0.115.46-.155,0.66h-0.02c-0.06-.24-0.124-0.49-0.19-0.73s-0.134-.47-0.2-0.69l-0.71-2.25h-1.13l-0.69,2.24c-0.06.19-.119,0.4-0.175,0.63s-0.119.5-.185,0.8h-0.02c-0.054-.26-0.112-0.5-0.175-0.74s-0.132-.46-0.2-0.68l-0.71-2.25h-1.31l1.66,4.9h1.33l0.7-2.19c0.06-.2.113-0.39,0.16-0.59s0.09-.4.13-0.62h0.02c0.04,0.22.085,0.42,0.135,0.62s0.1,0.39.165,0.58l0.72,2.2h1.34Zm2.552-5.57h1.22v-1.37h-1.22v1.37Zm1.21,5.57v-4.9h-1.2v4.9h1.2Zm1.7-3.94v2.48a2.421,2.421,0,0,0,.145.92,0.968,0.968,0,0,0,.46.52,1.833,1.833,0,0,0,.845.16,3.272,3.272,0,0,0,.54-0.04,1.607,1.607,0,0,0,.45-0.13v-0.95a1.1,1.1,0,0,1-.31.08,2.442,2.442,0,0,1-.38.03,0.824,0.824,0,0,1-.24-0.02,0.367,0.367,0,0,1-.16-0.1,0.417,0.417,0,0,1-.09-0.16,1.238,1.238,0,0,1-.045-0.27c-0.01-.12-0.015-0.32-0.015-0.59v-1.93h1.24v-0.96h-1.24v-1.76l-1.2.24v1.52H459.3v0.96h0.78Zm3.463,3.94h1.2v-2.41a3.075,3.075,0,0,1,.095-0.84,1.287,1.287,0,0,1,.315-0.54,1.045,1.045,0,0,1,.32-0.2,1.213,1.213,0,0,1,.43-0.08,1.013,1.013,0,0,1,.51.12,0.807,0.807,0,0,1,.32.33,1.6,1.6,0,0,1,.1.35,5.036,5.036,0,0,1,.03.67v2.6h1.2v-3.04a2.617,2.617,0,0,0-.21-1.11,1.429,1.429,0,0,0-.62-0.67,2.176,2.176,0,0,0-1.885-.03,1.675,1.675,0,0,0-.645.56H464.7a8.094,8.094,0,0,0,.05-0.95v-1.82h-1.2v7.06Zm8.6,0h1.3v-2.39c0.3,0.01.75,0.01,1.35,0.01a4.368,4.368,0,0,0,1.635-.26,2,2,0,0,0,1-.76,2.129,2.129,0,0,0,.335-1.22,2.236,2.236,0,0,0-.315-1.22,1.937,1.937,0,0,0-.955-0.75,4.677,4.677,0,0,0-1.63-.25c-0.906.01-1.813,0.02-2.72,0.02v6.82Zm4.085-3.96a0.962,0.962,0,0,1-.51.38,2.74,2.74,0,0,1-.885.12c-0.633,0-1.1,0-1.39-.01v-2.27c0.287,0,.75-0.01,1.39-0.01a2.74,2.74,0,0,1,.885.12,0.962,0.962,0,0,1,.51.38,1.183,1.183,0,0,1,.165.65A1.126,1.126,0,0,1,476.229,2248.68Zm3.471,1.02a1.853,1.853,0,0,1,.2-0.65,0.987,0.987,0,0,1,.4-0.4,1.185,1.185,0,0,1,.57-0.14,1.078,1.078,0,0,1,.575.15,1.037,1.037,0,0,1,.385.42,1.411,1.411,0,0,1,.15.62H479.7Zm2.46,2.88a3.049,3.049,0,0,0,1-.63l-0.52-.76a1.891,1.891,0,0,1-.7.49,2.217,2.217,0,0,1-.865.16,1.548,1.548,0,0,1-.7-0.15,1.1,1.1,0,0,1-.475-0.44,1.666,1.666,0,0,1-.215-0.72h3.52a2.265,2.265,0,0,0,.05-0.53,2.754,2.754,0,0,0-.28-1.26,1.968,1.968,0,0,0-.81-0.85,2.536,2.536,0,0,0-1.27-.3,2.587,2.587,0,0,0-1.32.33,2.18,2.18,0,0,0-.87.91,3.322,3.322,0,0,0,0,2.77,2.023,2.023,0,0,0,.885.88,2.993,2.993,0,0,0,1.39.3A3.5,3.5,0,0,0,482.16,2252.58Zm6.876,0.06q-0.019-.75-0.025-1.23c0-.32-0.005-0.72-0.005-1.21v-4.62h-1.2v1.82c0,0.32.01,0.6,0.03,0.85h-0.01a1.587,1.587,0,0,0-.6-0.49,2.008,2.008,0,0,0-.835-0.17,2.193,2.193,0,0,0-1.2.33,2.146,2.146,0,0,0-.8.93,3.164,3.164,0,0,0-.28,1.36,3.286,3.286,0,0,0,.26,1.34,1.968,1.968,0,0,0,.755.91,2.045,2.045,0,0,0,1.165.32,2.174,2.174,0,0,0,.935-0.2,1.511,1.511,0,0,0,.645-0.59h0.01l0.02,0.65h1.13Zm-1.2-2.37a2.152,2.152,0,0,1-.14.81,1.1,1.1,0,0,1-.415.54,1.2,1.2,0,0,1-1.31-.01,1.212,1.212,0,0,1-.435-0.57,2.225,2.225,0,0,1-.15-0.85,2.378,2.378,0,0,1,.145-0.86,1.235,1.235,0,0,1,.42-0.56,1.106,1.106,0,0,1,.655-0.2,1.166,1.166,0,0,1,.64.19,1.187,1.187,0,0,1,.435.53,2.035,2.035,0,0,1,.155.81v0.17Zm3.625-.57a1.833,1.833,0,0,1,.2-0.65,0.981,0.981,0,0,1,.4-0.4,1.185,1.185,0,0,1,.57-0.14,1.078,1.078,0,0,1,.575.15,1.044,1.044,0,0,1,.385.42,1.439,1.439,0,0,1,.15.62h-2.28Zm2.46,2.88a3.049,3.049,0,0,0,1-.63l-0.52-.76a1.907,1.907,0,0,1-.7.49,2.22,2.22,0,0,1-.865.16,1.545,1.545,0,0,1-.7-0.15,1.1,1.1,0,0,1-.475-0.44,1.652,1.652,0,0,1-.215-0.72h3.52a2.321,2.321,0,0,0,.05-0.53,2.754,2.754,0,0,0-.28-1.26,1.98,1.98,0,0,0-.81-0.85,2.539,2.539,0,0,0-1.27-.3,2.587,2.587,0,0,0-1.32.33,2.18,2.18,0,0,0-.87.91,3.322,3.322,0,0,0,0,2.77,2.013,2.013,0,0,0,.885.88,2.993,2.993,0,0,0,1.39.3A3.509,3.509,0,0,0,493.921,2252.58Zm1.9-.52a4.206,4.206,0,0,0,1.1.54,3.832,3.832,0,0,0,1.16.18,2.935,2.935,0,0,0,1.11-.19,1.6,1.6,0,0,0,.73-0.56,1.4,1.4,0,0,0,.25-0.83,1.473,1.473,0,0,0-.165-0.72,1.377,1.377,0,0,0-.515-0.51,3.649,3.649,0,0,0-1.025-.33,5.065,5.065,0,0,1-.87-0.22,0.62,0.62,0,0,1-.285-0.19,0.392,0.392,0,0,1-.09-0.26,0.366,0.366,0,0,1,.09-0.25,0.59,0.59,0,0,1,.26-0.16,1.2,1.2,0,0,1,.4-0.06,2.607,2.607,0,0,1,.775.13,2.39,2.39,0,0,1,.695.35l0.46-.84a3.753,3.753,0,0,0-1.91-.55,2.825,2.825,0,0,0-1.045.18,1.575,1.575,0,0,0-.7.52,1.356,1.356,0,0,0-.245.8,1.466,1.466,0,0,0,.16.71,1.259,1.259,0,0,0,.5.5,3.256,3.256,0,0,0,1.02.34,8.311,8.311,0,0,1,.87.22,0.744,0.744,0,0,1,.29.18,0.426,0.426,0,0,1,.1.27,0.439,0.439,0,0,1-.215.4,1.212,1.212,0,0,1-.635.13,2.675,2.675,0,0,1-.91-0.16,2.973,2.973,0,0,1-.87-0.49Zm5.74-3.36v2.48a2.421,2.421,0,0,0,.145.92,0.972,0.972,0,0,0,.46.52,1.836,1.836,0,0,0,.845.16,3.272,3.272,0,0,0,.54-0.04,1.607,1.607,0,0,0,.45-0.13v-0.95a1.094,1.094,0,0,1-.31.08,2.433,2.433,0,0,1-.38.03,0.824,0.824,0,0,1-.24-0.02,0.373,0.373,0,0,1-.16-0.1,0.417,0.417,0,0,1-.09-0.16,1.238,1.238,0,0,1-.045-0.27c-0.01-.12-0.015-0.32-0.015-0.59v-1.93H504v-0.96h-1.24v-1.76l-1.2.24v1.52h-0.78v0.96h0.78Zm4.658,3.94v-1.66a4.387,4.387,0,0,1,.11-1.17,1.493,1.493,0,0,1,.36-0.62,1.058,1.058,0,0,1,.42-0.27,1.671,1.671,0,0,1,.57-0.09c0.1,0,.2.01,0.29,0.01v-1.23c-0.074,0-.164-0.01-0.27-0.01a1.616,1.616,0,0,0-.86.25,2.184,2.184,0,0,0-.68.77h-0.01l-0.03-.88h-1.13c0.013,0.64.021,1.12,0.025,1.43s0,0.67,0,1.07v2.4h1.2Zm2.641-5.57h1.22v-1.37h-1.22v1.37Zm1.21,5.57v-4.9h-1.2v4.9h1.2Zm1.559-.26a1.821,1.821,0,0,0,1.25.4,2.088,2.088,0,0,0,.875-0.18,1.753,1.753,0,0,0,.675-0.56h0.01l0.02,0.6h1.13c-0.02-.71-0.03-1.2-0.03-1.46v-1.81a1.643,1.643,0,0,0-.525-1.32,2.3,2.3,0,0,0-1.535-.46,3.267,3.267,0,0,0-1.21.23,3.16,3.16,0,0,0-1.01.67l0.58,0.72a2.138,2.138,0,0,1,.695-0.52,1.9,1.9,0,0,1,.815-0.18,1.078,1.078,0,0,1,.735.23,0.826,0.826,0,0,1,.255.65v0.21a8.367,8.367,0,0,0-1.43.11,3.29,3.29,0,0,0-.99.32,1.528,1.528,0,0,0-.58.52A1.527,1.527,0,0,0,511.625,2252.38Zm2.73-1.94v0.21a1.214,1.214,0,0,1-.15.6,1.181,1.181,0,0,1-.42.44,1.124,1.124,0,0,1-.6.16,0.855,0.855,0,0,1-.56-0.16,0.585,0.585,0,0,1-.2-0.48,0.6,0.6,0,0,1,.1-0.35,0.674,0.674,0,0,1,.325-0.24,2.439,2.439,0,0,1,.59-0.13,7.553,7.553,0,0,1,.915-0.05h0Zm7.1,2.2v-3.04a2.156,2.156,0,0,0-.465-1.5,1.742,1.742,0,0,0-1.355-.51,1.988,1.988,0,0,0-.92.21,1.655,1.655,0,0,0-.65.59h-0.01l-0.02-.65h-1.13c0.006,0.18.011,0.35,0.015,0.53s0.006,0.36.01,0.56,0,0.41,0,.64v3.17h1.2v-2.41a3.075,3.075,0,0,1,.1-0.84,1.287,1.287,0,0,1,.315-0.54,1.045,1.045,0,0,1,.32-0.2,1.213,1.213,0,0,1,.43-0.08,1.013,1.013,0,0,1,.51.12,0.807,0.807,0,0,1,.32.33,1.6,1.6,0,0,1,.1.35,5.036,5.036,0,0,1,.03.67v2.6h1.2Zm4.08,0c0.78,0,1.563.01,2.35,0.01a5.115,5.115,0,0,0,1.63-.22,2.792,2.792,0,0,0,1.13-.68,2.936,2.936,0,0,0,.68-1.1,4.2,4.2,0,0,0,.24-1.45,4.039,4.039,0,0,0-.23-1.4,2.93,2.93,0,0,0-.68-1.08,2.787,2.787,0,0,0-1.135-.69,5.6,5.6,0,0,0-1.685-.22c-0.854,0-1.62.01-2.3,0.01v6.82Zm1.29-5.74c0.193,0,.516-0.01.97-0.01a3.8,3.8,0,0,1,1.1.12,1.687,1.687,0,0,1,.66.41,2.1,2.1,0,0,1,.47.77,3.074,3.074,0,0,1,.17,1.04,3.3,3.3,0,0,1-.155,1.06,1.9,1.9,0,0,1-.465.77,1.606,1.606,0,0,1-.62.39,3.653,3.653,0,0,1-1.08.11q-0.471,0-1.05-.03v-4.63Zm7.025,2.8a1.833,1.833,0,0,1,.2-0.65,0.981,0.981,0,0,1,.4-0.4,1.179,1.179,0,0,1,.57-0.14,1.081,1.081,0,0,1,.575.15,1.051,1.051,0,0,1,.385.42,1.439,1.439,0,0,1,.15.62h-2.28Zm2.46,2.88a3.059,3.059,0,0,0,1-.63l-0.52-.76a1.907,1.907,0,0,1-.7.49,2.224,2.224,0,0,1-.865.16,1.545,1.545,0,0,1-.7-0.15,1.1,1.1,0,0,1-.475-0.44,1.639,1.639,0,0,1-.215-0.72h3.52a2.321,2.321,0,0,0,.05-0.53,2.767,2.767,0,0,0-.28-1.26,1.98,1.98,0,0,0-.81-0.85,2.541,2.541,0,0,0-1.27-.3,2.587,2.587,0,0,0-1.32.33,2.18,2.18,0,0,0-.87.91,3.322,3.322,0,0,0,0,2.77,2.013,2.013,0,0,0,.885.88,2.99,2.99,0,0,0,1.39.3A3.509,3.509,0,0,0,536.31,2252.58Zm2.489-3.88v2.48a2.441,2.441,0,0,0,.145.92,0.972,0.972,0,0,0,.46.52,1.836,1.836,0,0,0,.845.16,3.272,3.272,0,0,0,.54-0.04,1.607,1.607,0,0,0,.45-0.13v-0.95a1.094,1.094,0,0,1-.31.08,2.423,2.423,0,0,1-.38.03,0.824,0.824,0,0,1-.24-0.02,0.373,0.373,0,0,1-.16-0.1,0.417,0.417,0,0,1-.09-0.16,1.238,1.238,0,0,1-.045-0.27c-0.01-.12-0.015-0.32-0.015-0.59v-1.93h1.24v-0.96H540v-1.76l-1.2.24v1.52h-0.78v0.96h0.78Zm4.423,1a1.853,1.853,0,0,1,.2-0.65,0.987,0.987,0,0,1,.4-0.4,1.185,1.185,0,0,1,.57-0.14,1.078,1.078,0,0,1,.575.15,1.037,1.037,0,0,1,.385.42,1.411,1.411,0,0,1,.15.62h-2.28Zm2.46,2.88a3.049,3.049,0,0,0,1-.63l-0.52-.76a1.891,1.891,0,0,1-.705.49,2.217,2.217,0,0,1-.865.16,1.548,1.548,0,0,1-.7-0.15,1.1,1.1,0,0,1-.475-0.44,1.666,1.666,0,0,1-.215-0.72h3.52a2.265,2.265,0,0,0,.05-0.53,2.754,2.754,0,0,0-.28-1.26,1.968,1.968,0,0,0-.81-0.85,2.536,2.536,0,0,0-1.27-.3,2.587,2.587,0,0,0-1.32.33,2.18,2.18,0,0,0-.87.91,3.322,3.322,0,0,0,0,2.77,2.023,2.023,0,0,0,.885.88,2.993,2.993,0,0,0,1.39.3A3.5,3.5,0,0,0,545.682,2252.58Zm5.57-1.66a1.428,1.428,0,0,1-.455.65,1.122,1.122,0,0,1-.685.21,1.06,1.06,0,0,1-.64-0.19,1.248,1.248,0,0,1-.415-0.56,2.286,2.286,0,0,1-.145-0.85,2.374,2.374,0,0,1,.14-0.85,1.133,1.133,0,0,1,.41-0.55,1.135,1.135,0,0,1,1.3.03,1.327,1.327,0,0,1,.42.64l1.09-.44a2.064,2.064,0,0,0-.815-1.06,2.747,2.747,0,0,0-2.665-.03,2.17,2.17,0,0,0-.855.91,3.041,3.041,0,0,0-.295,1.37,3.1,3.1,0,0,0,.285,1.37,2.033,2.033,0,0,0,.84.9,2.6,2.6,0,0,0,1.3.31,2.438,2.438,0,0,0,1.355-.36,2.582,2.582,0,0,0,.915-1.13Zm2.461-2.22v2.48a2.421,2.421,0,0,0,.145.92,0.972,0.972,0,0,0,.46.52,1.836,1.836,0,0,0,.845.16,3.272,3.272,0,0,0,.54-0.04,1.607,1.607,0,0,0,.45-0.13v-0.95a1.094,1.094,0,0,1-.31.08,2.433,2.433,0,0,1-.38.03,0.824,0.824,0,0,1-.24-0.02,0.373,0.373,0,0,1-.16-0.1,0.417,0.417,0,0,1-.09-0.16,1.238,1.238,0,0,1-.045-0.27c-0.01-.12-0.015-0.32-0.015-0.59v-1.93h1.24v-0.96h-1.24v-1.76l-1.2.24v1.52h-0.78v0.96h0.78Zm3.438-1.63h1.22v-1.37h-1.22v1.37Zm1.21,5.57v-4.9h-1.2v4.9h1.2Zm5.893-3.83a2.072,2.072,0,0,0-.865-0.9,2.73,2.73,0,0,0-1.34-.32,2.655,2.655,0,0,0-1.345.33,2.241,2.241,0,0,0-.885.91,2.918,2.918,0,0,0-.31,1.37,3.025,3.025,0,0,0,.295,1.38,2,2,0,0,0,.865.89,2.727,2.727,0,0,0,1.34.31,2.652,2.652,0,0,0,1.345-.32,2.125,2.125,0,0,0,.885-0.91,2.918,2.918,0,0,0,.31-1.37A3.011,3.011,0,0,0,564.254,2248.81Zm-1.125,2.21a1.246,1.246,0,0,1-.43.56,1.079,1.079,0,0,1-.67.2,1.146,1.146,0,0,1-.665-0.19,1.234,1.234,0,0,1-.435-0.56,2.4,2.4,0,0,1,0-1.67,1.3,1.3,0,0,1,.43-0.56,1.214,1.214,0,0,1,1.335,0,1.205,1.205,0,0,1,.435.55,2.172,2.172,0,0,1,.15.84A2.12,2.12,0,0,1,563.129,2251.02Zm7.09,1.62v-3.04a2.156,2.156,0,0,0-.465-1.5,1.742,1.742,0,0,0-1.355-.51,1.988,1.988,0,0,0-.92.21,1.661,1.661,0,0,0-.65.59h-0.01l-0.02-.65h-1.13c0.007,0.18.012,0.35,0.015,0.53s0.007,0.36.01,0.56,0,0.41,0,.64v3.17h1.2v-2.41a3.114,3.114,0,0,1,.1-0.84,1.287,1.287,0,0,1,.315-0.54,1.057,1.057,0,0,1,.32-0.2,1.217,1.217,0,0,1,.43-0.08,1.013,1.013,0,0,1,.51.12,0.8,0.8,0,0,1,.32.33,1.544,1.544,0,0,1,.1.35,5.036,5.036,0,0,1,.03.67v2.6h1.2Z" transform="translate(-448.25 -2233.59)"/>
</svg>
