<svg xmlns="http://www.w3.org/2000/svg" width="115.406" height="49.93" viewBox="0 0 115.406 49.93">
  <defs>
    <style>
      .cls-1 {
        fill-rule: evenodd;
      }
    </style>
  </defs>
  <path id="Volvo_XC40_with_Pedestrian_Detection" data-name="Volvo XC40  with Pedestrian Detection" class="cls-1" d="M330.242,2955.46l3.9-10.91h-2.272l-1.68,5.26c-0.384,1.13-.638,1.92-0.76,2.36s-0.227.84-.312,1.18H329.09q-0.113-.525-0.3-1.17c-0.128-.43-0.39-1.21-0.784-2.35l-1.744-5.28h-2.32l3.888,10.91h2.416Zm11.529-6.14a3.357,3.357,0,0,0-1.384-1.44,4.43,4.43,0,0,0-2.144-.5,4.266,4.266,0,0,0-2.152.52,3.545,3.545,0,0,0-1.416,1.46,4.654,4.654,0,0,0-.5,2.2,4.85,4.85,0,0,0,.472,2.2,3.28,3.28,0,0,0,1.384,1.43,4.428,4.428,0,0,0,2.144.49,4.368,4.368,0,0,0,2.152-.51,3.486,3.486,0,0,0,1.416-1.46,4.7,4.7,0,0,0,.5-2.19A4.85,4.85,0,0,0,341.771,2949.32Zm-1.8,3.55a2.01,2.01,0,0,1-.688.89,1.752,1.752,0,0,1-1.072.32,1.823,1.823,0,0,1-1.064-.31,1.99,1.99,0,0,1-.7-0.89,3.519,3.519,0,0,1-.24-1.34,3.466,3.466,0,0,1,.24-1.33,2.01,2.01,0,0,1,.688-0.89,1.752,1.752,0,0,1,1.072-.32,1.823,1.823,0,0,1,1.064.31,1.937,1.937,0,0,1,.7.89A3.833,3.833,0,0,1,339.971,2952.87Zm3.987,2.59h1.92v-11.3h-1.92v11.3Zm8.32,0,2.96-7.84H353.11l-1.024,3.17c-0.16.54-.317,1.06-0.472,1.57s-0.269.91-.344,1.23h-0.048q-0.159-.645-0.384-1.38c-0.149-.49-0.3-0.96-0.448-1.42l-1.088-3.17h-2.176l2.96,7.84h2.192Zm11.029-6.14a3.357,3.357,0,0,0-1.384-1.44,4.43,4.43,0,0,0-2.144-.5,4.266,4.266,0,0,0-2.152.52,3.545,3.545,0,0,0-1.416,1.46,4.654,4.654,0,0,0-.5,2.2,4.85,4.85,0,0,0,.472,2.2,3.28,3.28,0,0,0,1.384,1.43,4.428,4.428,0,0,0,2.144.49,4.368,4.368,0,0,0,2.152-.51,3.486,3.486,0,0,0,1.416-1.46,4.7,4.7,0,0,0,.5-2.19A4.85,4.85,0,0,0,363.307,2949.32Zm-1.8,3.55a2.01,2.01,0,0,1-.688.89,1.752,1.752,0,0,1-1.072.32,1.823,1.823,0,0,1-1.064-.31,1.99,1.99,0,0,1-.7-0.89,3.519,3.519,0,0,1-.24-1.34,3.466,3.466,0,0,1,.24-1.33,2.01,2.01,0,0,1,.688-0.89,1.752,1.752,0,0,1,1.072-.32,1.823,1.823,0,0,1,1.064.31,1.937,1.937,0,0,1,.7.89A3.833,3.833,0,0,1,361.507,2952.87Zm6.928,2.59h2.352l2.624-4.11,2.544,4.11h2.512l-3.744-5.76,3.392-5.15H375.8l-2.272,3.58-2.208-3.58H368.8l3.408,5.23Zm18.538-3.66a2.709,2.709,0,0,1-2.784,2.04,2.794,2.794,0,0,1-1.592-.46,3.088,3.088,0,0,1-1.088-1.34,5.557,5.557,0,0,1-.008-4.08,3.078,3.078,0,0,1,1.064-1.34,2.628,2.628,0,0,1,1.56-.47,2.677,2.677,0,0,1,2.688,1.93l1.968-.56a4.73,4.73,0,0,0-1.744-2.4,4.961,4.961,0,0,0-2.88-.83,5.2,5.2,0,0,0-2.672.72,4.838,4.838,0,0,0-1.9,2.01,6.464,6.464,0,0,0-.664,3,6.6,6.6,0,0,0,.656,3.01,4.7,4.7,0,0,0,1.848,1.99,5.349,5.349,0,0,0,2.728.7,5.088,5.088,0,0,0,3.008-.88,4.741,4.741,0,0,0,1.744-2.55Zm10.63,3.66v-2.61h1.776v-1.68H397.6v-6.62h-3.024l-4.368,6.7v1.6h5.328v2.61H397.6Zm-5.424-4.24,3.328-5.07h0.08q-0.033.75-.04,1.41c-0.006.43-.008,0.91-0.008,1.42v2.19q-1.024.015-1.848,0.03c-0.55,0-1.054.01-1.512,0.02h0Zm17.468-4.32a4.027,4.027,0,0,0-1.552-1.94,4.442,4.442,0,0,0-2.488-.67,4.617,4.617,0,0,0-2.5.67,4.293,4.293,0,0,0-1.616,1.97,7.838,7.838,0,0,0-.56,3.11,8.2,8.2,0,0,0,.52,3.07,4.032,4.032,0,0,0,1.552,1.94,4.938,4.938,0,0,0,4.984-.01,4.21,4.21,0,0,0,1.616-1.96,7.82,7.82,0,0,0,.56-3.11A8.141,8.141,0,0,0,409.647,2946.9Zm-2.272,6.06a2.011,2.011,0,0,1-1.832.96,1.986,1.986,0,0,1-1.816-.97,5.774,5.774,0,0,1-.6-2.96,5.716,5.716,0,0,1,.6-2.94,2.194,2.194,0,0,1,3.648.01,5.774,5.774,0,0,1,.6,2.96A5.716,5.716,0,0,1,407.375,2952.96Zm-87.827,21.7,2.64-7.84H320.14l-1.04,3.6c-0.117.43-.226,0.83-0.328,1.22s-0.184.73-.248,1.05h-0.032c-0.1-.39-0.2-0.79-0.3-1.17s-0.213-.76-0.32-1.1l-1.136-3.6h-1.808l-1.1,3.58c-0.1.3-.189,0.64-0.28,1s-0.189.8-.3,1.29h-0.032c-0.085-.41-0.178-0.81-0.28-1.18s-0.21-.74-0.328-1.09l-1.136-3.6h-2.1l2.656,7.84h2.128l1.12-3.5q0.144-.48.256-0.96c0.075-.31.144-0.64,0.208-0.98h0.032c0.064,0.34.136,0.67,0.216,0.98s0.168,0.63.264,0.94l1.152,3.52h2.144Zm3.943-8.91h1.952v-2.19h-1.952v2.19Zm1.936,8.91v-7.84h-1.92v7.84h1.92Zm2.574-6.3v3.96a3.958,3.958,0,0,0,.232,1.48,1.6,1.6,0,0,0,.736.82,2.883,2.883,0,0,0,1.352.26,5.035,5.035,0,0,0,.864-0.07,2.89,2.89,0,0,0,.72-0.2v-1.52a2.27,2.27,0,0,1-.5.13,4.155,4.155,0,0,1-.608.05,1.852,1.852,0,0,1-.384-0.04,0.659,0.659,0,0,1-.256-0.15,0.788,0.788,0,0,1-.144-0.26,2.027,2.027,0,0,1-.072-0.44c-0.016-.2-0.024-0.51-0.024-0.94v-3.08h1.984v-1.54h-1.984V2964l-1.92.39v2.43h-1.248v1.54H328Zm5.4,6.3h1.92v-3.86a4.853,4.853,0,0,1,.152-1.34,1.985,1.985,0,0,1,.5-0.86,1.4,1.4,0,0,1,.512-0.32,1.752,1.752,0,0,1,.688-0.13,1.708,1.708,0,0,1,.816.18,1.182,1.182,0,0,1,.512.54,2.168,2.168,0,0,1,.16.56,7.959,7.959,0,0,1,.048,1.07v4.16h1.92v-4.86a4.2,4.2,0,0,0-.336-1.79,2.324,2.324,0,0,0-.992-1.07,3.516,3.516,0,0,0-3.016-.04,2.534,2.534,0,0,0-1.032.9h-0.016a12.91,12.91,0,0,0,.08-1.52v-2.92H333.4v11.3Zm13.76,0h2.08v-3.82c0.48,0.01,1.2.01,2.16,0.01a7.381,7.381,0,0,0,2.616-.41,3.344,3.344,0,0,0,1.6-1.22,3.411,3.411,0,0,0,.536-1.95,3.583,3.583,0,0,0-.5-1.96,3.008,3.008,0,0,0-1.528-1.19,7.174,7.174,0,0,0-2.608-.4l-4.352.03v10.91Zm6.536-6.34a1.548,1.548,0,0,1-.816.6,4.058,4.058,0,0,1-1.416.2c-1.013,0-1.755,0-2.224-.01v-3.63c0.459-.02,1.2-0.02,2.224-0.02a4.335,4.335,0,0,1,1.416.19,1.548,1.548,0,0,1,.816.6,1.892,1.892,0,0,1,.264,1.05A1.787,1.787,0,0,1,353.7,2968.32Zm5.41,1.64a2.824,2.824,0,0,1,.32-1.04,1.561,1.561,0,0,1,.64-0.65,1.822,1.822,0,0,1,.912-0.22,1.649,1.649,0,0,1,1.536.91,2.3,2.3,0,0,1,.24,1h-3.648Zm3.936,4.6a4.934,4.934,0,0,0,1.6-1l-0.832-1.22a3.183,3.183,0,0,1-1.128.78,3.671,3.671,0,0,1-1.384.26,2.473,2.473,0,0,1-1.12-.24,1.873,1.873,0,0,1-.76-0.7,2.71,2.71,0,0,1-.344-1.16h5.632a3.674,3.674,0,0,0,.08-0.84,4.452,4.452,0,0,0-.448-2.03,3.176,3.176,0,0,0-1.3-1.36,4.587,4.587,0,0,0-4.144.05,3.452,3.452,0,0,0-1.392,1.46,5.31,5.31,0,0,0,.008,4.43,3.248,3.248,0,0,0,1.416,1.41,4.785,4.785,0,0,0,2.224.48A5.564,5.564,0,0,0,363.041,2974.56Zm10.87,0.1q-0.033-1.215-.04-1.98c-0.006-.5-0.008-1.15-0.008-1.92v-7.4h-1.92v2.92c0,0.5.016,0.95,0.048,1.36h-0.016a2.338,2.338,0,0,0-.952-0.79,3.153,3.153,0,0,0-1.336-.27,3.521,3.521,0,0,0-1.92.53,3.394,3.394,0,0,0-1.28,1.48,5.039,5.039,0,0,0-.448,2.18,5.286,5.286,0,0,0,.416,2.15,3.259,3.259,0,0,0,1.208,1.45,3.366,3.366,0,0,0,1.864.51,3.453,3.453,0,0,0,1.5-.32,2.5,2.5,0,0,0,1.032-.94h0.016l0.032,1.04h1.808Zm-1.92-3.79a3.437,3.437,0,0,1-.224,1.29,1.88,1.88,0,0,1-.664.87,1.79,1.79,0,0,1-1.032.3,1.828,1.828,0,0,1-1.064-.32,2,2,0,0,1-.7-0.91,3.625,3.625,0,0,1-.24-1.36,3.8,3.8,0,0,1,.232-1.38,1.951,1.951,0,0,1,.672-0.9,1.748,1.748,0,0,1,1.048-.31,1.871,1.871,0,0,1,1.024.29,1.984,1.984,0,0,1,.7.86,3.157,3.157,0,0,1,.248,1.3v0.27Zm5.659-.91a2.824,2.824,0,0,1,.32-1.04,1.561,1.561,0,0,1,.64-0.65,1.822,1.822,0,0,1,.912-0.22,1.649,1.649,0,0,1,1.536.91,2.3,2.3,0,0,1,.24,1H377.65Zm3.936,4.6a4.934,4.934,0,0,0,1.6-1l-0.832-1.22a3.183,3.183,0,0,1-1.128.78,3.671,3.671,0,0,1-1.384.26,2.473,2.473,0,0,1-1.12-.24,1.873,1.873,0,0,1-.76-0.7,2.71,2.71,0,0,1-.344-1.16h5.632a3.674,3.674,0,0,0,.08-0.84,4.452,4.452,0,0,0-.448-2.03,3.176,3.176,0,0,0-1.3-1.36,4.587,4.587,0,0,0-4.144.05,3.452,3.452,0,0,0-1.392,1.46,5.31,5.31,0,0,0,.008,4.43,3.248,3.248,0,0,0,1.416,1.41,4.785,4.785,0,0,0,2.224.48A5.564,5.564,0,0,0,381.586,2974.56Zm2.9-.83a6.818,6.818,0,0,0,1.76.87,6.179,6.179,0,0,0,1.856.28,4.655,4.655,0,0,0,1.776-.31,2.515,2.515,0,0,0,1.168-.89,2.245,2.245,0,0,0,.4-1.32,2.384,2.384,0,0,0-.264-1.16,2.029,2.029,0,0,0-.824-0.81,5.621,5.621,0,0,0-1.64-.54,10.067,10.067,0,0,1-1.392-.34,1.159,1.159,0,0,1-.456-0.31,0.656,0.656,0,0,1,0-.82,0.924,0.924,0,0,1,.416-0.26,2.055,2.055,0,0,1,.64-0.08,3.809,3.809,0,0,1,1.24.2,3.887,3.887,0,0,1,1.112.56l0.736-1.34a5.446,5.446,0,0,0-1.448-.65,5.984,5.984,0,0,0-1.608-.23,4.557,4.557,0,0,0-1.672.29,2.441,2.441,0,0,0-1.12.83,2.123,2.123,0,0,0-.392,1.28,2.386,2.386,0,0,0,.256,1.14,2.084,2.084,0,0,0,.808.8,5.8,5.8,0,0,0,1.632.54,11.882,11.882,0,0,1,1.392.34,1.125,1.125,0,0,1,.464.3,0.64,0.64,0,0,1,.152.43,0.691,0.691,0,0,1-.344.63,1.874,1.874,0,0,1-1.016.22,4.433,4.433,0,0,1-1.456-.26,5.143,5.143,0,0,1-1.392-.78Zm9.046-5.37v3.96a3.958,3.958,0,0,0,.232,1.48,1.591,1.591,0,0,0,.736.82,2.88,2.88,0,0,0,1.352.26,5.035,5.035,0,0,0,.864-0.07,2.89,2.89,0,0,0,.72-0.2v-1.52a2.285,2.285,0,0,1-.5.13,4.166,4.166,0,0,1-.608.05,1.852,1.852,0,0,1-.384-0.04,0.652,0.652,0,0,1-.256-0.15,0.788,0.788,0,0,1-.144-0.26,2.027,2.027,0,0,1-.072-0.44c-0.016-.2-0.024-0.51-0.024-0.94v-3.08h1.984v-1.54h-1.984V2964l-1.92.39v2.43H392.28v1.54h1.248Zm7.312,6.3V2972a7.158,7.158,0,0,1,.176-1.88,2.3,2.3,0,0,1,.576-0.98,1.649,1.649,0,0,1,.672-0.43,2.58,2.58,0,0,1,.912-0.15c0.16,0,.314.01,0.464,0.02v-1.97c-0.118-.01-0.262-0.01-0.432-0.01a2.469,2.469,0,0,0-1.376.4,3.26,3.26,0,0,0-1.088,1.23h-0.016l-0.048-1.41h-1.808c0.021,1.02.034,1.79,0.04,2.29s0.008,1.07.008,1.71v3.84h1.92Zm4.086-8.91h1.952v-2.19h-1.952v2.19Zm1.936,8.91v-7.84h-1.92v7.84h1.92Zm2.352-.42a2.927,2.927,0,0,0,2,.64,3.368,3.368,0,0,0,1.4-.29,2.953,2.953,0,0,0,1.08-.89h0.016l0.032,0.96h1.808q-0.048-1.71-.048-2.34v-2.89a2.643,2.643,0,0,0-.84-2.12,3.626,3.626,0,0,0-2.456-.73,5.036,5.036,0,0,0-1.936.37,4.713,4.713,0,0,0-1.616,1.07l0.928,1.15a3.409,3.409,0,0,1,1.112-.84,3.064,3.064,0,0,1,1.3-.28,1.723,1.723,0,0,1,1.176.36,1.326,1.326,0,0,1,.408,1.05v0.34a13.768,13.768,0,0,0-2.288.16,5.312,5.312,0,0,0-1.584.52,2.291,2.291,0,0,0-.928.84A2.431,2.431,0,0,0,409.214,2974.24Zm4.368-3.1v0.34a1.971,1.971,0,0,1-.24.95,1.822,1.822,0,0,1-.672.7,1.775,1.775,0,0,1-.96.27,1.348,1.348,0,0,1-.9-0.27,0.923,0.923,0,0,1-.32-0.76,1,1,0,0,1,.16-0.57,1.093,1.093,0,0,1,.52-0.37,3.771,3.771,0,0,1,.944-0.22,11.946,11.946,0,0,1,1.464-.07h0Zm11.214,3.52v-4.86a3.436,3.436,0,0,0-.744-2.4,2.766,2.766,0,0,0-2.168-.82,3.113,3.113,0,0,0-1.472.34,2.546,2.546,0,0,0-1.04.94h-0.016l-0.032-1.04h-1.808q0.016,0.42.024,0.84t0.016,0.9c0.006,0.31.008,0.65,0.008,1.03v5.07h1.92v-3.86a4.853,4.853,0,0,1,.152-1.34,1.985,1.985,0,0,1,.5-0.86,1.4,1.4,0,0,1,.512-0.32,1.752,1.752,0,0,1,.688-0.13,1.708,1.708,0,0,1,.816.18,1.182,1.182,0,0,1,.512.54,2.168,2.168,0,0,1,.16.56,7.959,7.959,0,0,1,.048,1.07v4.16h1.92Zm-92.3,19.2c1.248,0,2.5,0,3.76.02a8.164,8.164,0,0,0,2.608-.36,4.584,4.584,0,0,0,1.808-1.08,4.776,4.776,0,0,0,1.088-1.76,6.779,6.779,0,0,0,.384-2.32,6.435,6.435,0,0,0-.368-2.25,4.668,4.668,0,0,0-1.088-1.72,4.448,4.448,0,0,0-1.816-1.11,8.779,8.779,0,0,0-2.7-.35c-1.366,0-2.592.01-3.68,0.02v10.91Zm2.064-9.18c0.309-.02.826-0.02,1.552-0.02a6.017,6.017,0,0,1,1.76.19,2.658,2.658,0,0,1,1.056.66,3.308,3.308,0,0,1,.752,1.23,4.874,4.874,0,0,1,.272,1.66,5.339,5.339,0,0,1-.248,1.7,3.127,3.127,0,0,1-.744,1.23,2.558,2.558,0,0,1-.992.62,6.1,6.1,0,0,1-1.728.18c-0.5,0-1.062-.01-1.68-0.05v-7.4Zm11.1,4.48a2.843,2.843,0,0,1,.32-1.04,1.567,1.567,0,0,1,.64-0.65,1.827,1.827,0,0,1,.912-0.22,1.649,1.649,0,0,1,1.536.91,2.269,2.269,0,0,1,.24,1h-3.648Zm3.936,4.6a4.923,4.923,0,0,0,1.6-1l-0.832-1.22a3.166,3.166,0,0,1-1.128.78,3.663,3.663,0,0,1-1.384.26,2.476,2.476,0,0,1-1.12-.24,1.879,1.879,0,0,1-.76-0.7,2.738,2.738,0,0,1-.344-1.16h5.632a3.619,3.619,0,0,0,.08-0.84,4.44,4.44,0,0,0-.448-2.03,3.165,3.165,0,0,0-1.3-1.36,4.587,4.587,0,0,0-4.144.05,3.452,3.452,0,0,0-1.392,1.46,5.31,5.31,0,0,0,.008,4.43,3.258,3.258,0,0,0,1.416,1.41,4.788,4.788,0,0,0,2.224.48A5.56,5.56,0,0,0,349.6,2993.76Zm3.846-6.2v3.96a3.979,3.979,0,0,0,.232,1.48,1.6,1.6,0,0,0,.736.82,2.883,2.883,0,0,0,1.352.26,5.035,5.035,0,0,0,.864-0.07,2.89,2.89,0,0,0,.72-0.2v-1.52a2.27,2.27,0,0,1-.5.13,4.143,4.143,0,0,1-.608.05,1.852,1.852,0,0,1-.384-0.04,0.659,0.659,0,0,1-.256-0.15,0.788,0.788,0,0,1-.144-0.26,2.027,2.027,0,0,1-.072-0.44c-0.016-.2-0.024-0.51-0.024-0.94v-3.08h1.984v-1.54h-1.984v-2.82l-1.92.39v2.43H352.2v1.54h1.248Zm6.935,1.6a2.824,2.824,0,0,1,.32-1.04,1.561,1.561,0,0,1,.64-0.65,1.822,1.822,0,0,1,.912-0.22,1.649,1.649,0,0,1,1.536.91,2.3,2.3,0,0,1,.24,1h-3.648Zm3.936,4.6a4.934,4.934,0,0,0,1.6-1l-0.832-1.22a3.183,3.183,0,0,1-1.128.78,3.671,3.671,0,0,1-1.384.26,2.473,2.473,0,0,1-1.12-.24,1.873,1.873,0,0,1-.76-0.7,2.71,2.71,0,0,1-.344-1.16h5.632a3.674,3.674,0,0,0,.08-0.84,4.452,4.452,0,0,0-.448-2.03,3.176,3.176,0,0,0-1.3-1.36,4.587,4.587,0,0,0-4.144.05,3.452,3.452,0,0,0-1.392,1.46,5.31,5.31,0,0,0,.008,4.43,3.248,3.248,0,0,0,1.416,1.41,4.785,4.785,0,0,0,2.224.48A5.564,5.564,0,0,0,364.314,2993.76Zm8.774-2.65a2.315,2.315,0,0,1-.728,1.03,1.762,1.762,0,0,1-1.1.34,1.687,1.687,0,0,1-1.024-.31,2,2,0,0,1-.664-0.89,3.655,3.655,0,0,1-.232-1.36,3.727,3.727,0,0,1,.224-1.36,1.777,1.777,0,0,1,.656-0.88,1.7,1.7,0,0,1,.992-0.3,1.735,1.735,0,0,1,1.088.35,2.15,2.15,0,0,1,.672,1.03l1.744-.71a3.271,3.271,0,0,0-1.3-1.7,4.445,4.445,0,0,0-4.264-.05,3.422,3.422,0,0,0-1.368,1.46,4.85,4.85,0,0,0-.472,2.2,4.908,4.908,0,0,0,.456,2.18,3.3,3.3,0,0,0,1.344,1.44,4.117,4.117,0,0,0,2.088.5,3.932,3.932,0,0,0,2.168-.57,4.244,4.244,0,0,0,1.464-1.81Zm3.809-3.55v3.96a3.979,3.979,0,0,0,.232,1.48,1.6,1.6,0,0,0,.736.82,2.883,2.883,0,0,0,1.352.26,5.035,5.035,0,0,0,.864-0.07,2.89,2.89,0,0,0,.72-0.2v-1.52a2.27,2.27,0,0,1-.5.13,4.143,4.143,0,0,1-.608.05,1.852,1.852,0,0,1-.384-0.04,0.659,0.659,0,0,1-.256-0.15,0.788,0.788,0,0,1-.144-0.26,2.027,2.027,0,0,1-.072-0.44c-0.016-.2-0.024-0.51-0.024-0.94v-3.08H380.8v-1.54h-1.984v-2.82l-1.92.39v2.43h-1.248v1.54H376.9Zm5.36-2.61h1.952v-2.19h-1.952v2.19Zm1.936,8.91v-7.84h-1.92v7.84h1.92Zm9.288-6.14a3.357,3.357,0,0,0-1.384-1.44,4.43,4.43,0,0,0-2.144-.5,4.266,4.266,0,0,0-2.152.52,3.545,3.545,0,0,0-1.416,1.46,4.654,4.654,0,0,0-.5,2.2,4.85,4.85,0,0,0,.472,2.2,3.28,3.28,0,0,0,1.384,1.43,4.428,4.428,0,0,0,2.144.49,4.368,4.368,0,0,0,2.152-.51,3.486,3.486,0,0,0,1.416-1.46,4.7,4.7,0,0,0,.5-2.19A4.85,4.85,0,0,0,393.481,2987.72Zm-1.8,3.55a2.01,2.01,0,0,1-.688.89,1.752,1.752,0,0,1-1.072.32,1.823,1.823,0,0,1-1.064-.31,1.99,1.99,0,0,1-.7-0.89,3.519,3.519,0,0,1-.24-1.34,3.466,3.466,0,0,1,.24-1.33,2.01,2.01,0,0,1,.688-0.89,1.752,1.752,0,0,1,1.072-.32,1.823,1.823,0,0,1,1.064.31,1.937,1.937,0,0,1,.7.89A3.833,3.833,0,0,1,391.681,2991.27Zm11.2,2.59V2989a3.436,3.436,0,0,0-.744-2.4,2.766,2.766,0,0,0-2.168-.82,3.113,3.113,0,0,0-1.472.34,2.546,2.546,0,0,0-1.04.94h-0.016l-0.032-1.04H395.6q0.017,0.42.024,0.84t0.016,0.9c0.006,0.31.008,0.65,0.008,1.03v5.07h1.92V2990a4.853,4.853,0,0,1,.152-1.34,1.985,1.985,0,0,1,.5-0.86,1.4,1.4,0,0,1,.512-0.32,1.752,1.752,0,0,1,.688-0.13,1.708,1.708,0,0,1,.816.18,1.182,1.182,0,0,1,.512.54,2.168,2.168,0,0,1,.16.56,7.959,7.959,0,0,1,.048,1.07v4.16h1.92Z" transform="translate(-309.375 -2944.16)"/>
</svg>
