<svg xmlns="http://www.w3.org/2000/svg" width="264.218" height="42.25" viewBox="0 0 264.218 42.25">
  <defs>
    <style>
      .cls-1 {
        fill-rule: evenodd;
      }
    </style>
  </defs>
  <path id="Volvo_XC40_with_Pedestrian_Detection" data-name="Volvo XC40  with Pedestrian Detection" class="cls-1" d="M394.581,1771.78l5.368-15.01h-3.124l-2.31,7.24c-0.528,1.56-.877,2.64-1.045,3.25s-0.312,1.14-.429,1.61H393c-0.1-.48-0.242-1.02-0.418-1.6s-0.536-1.67-1.078-3.24l-2.4-7.26h-3.19l5.346,15.01h3.322Zm15.84-8.44a4.534,4.534,0,0,0-1.9-1.98,6.581,6.581,0,0,0-5.907.02,4.861,4.861,0,0,0-1.947,2.02,6.364,6.364,0,0,0-.682,3.01,6.586,6.586,0,0,0,.649,3.02,4.454,4.454,0,0,0,1.9,1.97,6.581,6.581,0,0,0,5.907-.02,4.791,4.791,0,0,0,1.947-2.01,6.42,6.42,0,0,0,.682-3A6.671,6.671,0,0,0,410.421,1763.34Zm-2.475,4.87a2.842,2.842,0,0,1-.946,1.24,2.493,2.493,0,0,1-1.474.44,2.572,2.572,0,0,1-1.463-.43,2.7,2.7,0,0,1-.957-1.24,5.239,5.239,0,0,1,0-3.66,2.748,2.748,0,0,1,.946-1.23,2.7,2.7,0,0,1,2.937-.01,2.639,2.639,0,0,1,.957,1.22,4.775,4.775,0,0,1,.33,1.85A4.655,4.655,0,0,1,407.946,1768.21Zm5.471,3.57h2.64v-15.53h-2.64v15.53Zm11.427,0,4.07-10.78h-2.926l-1.408,4.35q-0.33,1.125-.649,2.16c-0.213.69-.371,1.25-0.473,1.69h-0.066q-0.22-.87-0.528-1.89c-0.206-.67-0.411-1.33-0.616-1.96l-1.5-4.35H417.76l4.07,10.78h3.014ZM440,1763.34a4.534,4.534,0,0,0-1.9-1.98,6.581,6.581,0,0,0-5.907.02,4.861,4.861,0,0,0-1.947,2.02,6.364,6.364,0,0,0-.682,3.01,6.586,6.586,0,0,0,.649,3.02,4.454,4.454,0,0,0,1.9,1.97,6.581,6.581,0,0,0,5.907-.02,4.791,4.791,0,0,0,1.947-2.01,6.42,6.42,0,0,0,.682-3A6.671,6.671,0,0,0,440,1763.34Zm-2.475,4.87a2.842,2.842,0,0,1-.946,1.24,2.493,2.493,0,0,1-1.474.44,2.572,2.572,0,0,1-1.463-.43,2.7,2.7,0,0,1-.957-1.24,5.239,5.239,0,0,1,0-3.66,2.748,2.748,0,0,1,.946-1.23,2.7,2.7,0,0,1,2.937-.01,2.639,2.639,0,0,1,.957,1.22,4.775,4.775,0,0,1,.33,1.85A4.655,4.655,0,0,1,437.523,1768.21Zm9.526,3.57h3.234l3.608-5.66,3.5,5.66h3.454l-5.148-7.92,4.664-7.09h-3.19l-3.124,4.93-3.036-4.93h-3.454l4.686,7.2Zm25.475-5.04a3.9,3.9,0,0,1-1.408,2.09,4.007,4.007,0,0,1-2.42.73,3.9,3.9,0,0,1-2.189-.64,4.226,4.226,0,0,1-1.5-1.85,7.615,7.615,0,0,1-.011-5.6,4.331,4.331,0,0,1,1.463-1.85,3.693,3.693,0,0,1,2.145-.65,3.838,3.838,0,0,1,2.288.69,3.8,3.8,0,0,1,1.408,1.98l2.706-.77a6.414,6.414,0,0,0-2.4-3.3,6.727,6.727,0,0,0-3.96-1.15,7.157,7.157,0,0,0-3.674.99,6.674,6.674,0,0,0-2.607,2.76,9.852,9.852,0,0,0-.011,8.26,6.484,6.484,0,0,0,2.541,2.74,7.283,7.283,0,0,0,3.751.96,6.906,6.906,0,0,0,4.136-1.21,6.471,6.471,0,0,0,2.4-3.5Zm14.606,5.04v-3.59h2.442v-2.31H487.13v-9.11h-4.158l-6.006,9.22v2.2h7.326v3.59h2.838Zm-7.458-5.83,4.576-6.98h0.11c-0.029.69-.048,1.34-0.055,1.94s-0.011,1.25-.011,1.96v3.01q-1.408.03-2.541,0.03c-0.755.01-1.448,0.02-2.079,0.04h0Zm24.006-5.94a5.548,5.548,0,0,0-2.134-2.68,6.841,6.841,0,0,0-6.853.02,5.79,5.79,0,0,0-2.222,2.7,10.735,10.735,0,0,0-.77,4.27,11.18,11.18,0,0,0,.715,4.22,5.548,5.548,0,0,0,2.134,2.68,6.873,6.873,0,0,0,6.853-.01,5.868,5.868,0,0,0,2.222-2.71,10.735,10.735,0,0,0,.77-4.27A11.18,11.18,0,0,0,503.678,1760.01Zm-3.124,8.32a2.763,2.763,0,0,1-2.519,1.34,2.731,2.731,0,0,1-2.5-1.35,7.917,7.917,0,0,1-.825-4.07,7.777,7.777,0,0,1,.825-4.03,3.023,3.023,0,0,1,5.016.01,7.917,7.917,0,0,1,.825,4.07A7.777,7.777,0,0,1,500.554,1768.33Zm-173.477,29.85,3.63-10.78h-2.816l-1.43,4.95c-0.162.58-.312,1.14-0.451,1.67s-0.253,1.01-.341,1.45h-0.044q-0.2-.81-0.418-1.62-0.221-.8-0.44-1.5l-1.562-4.95h-2.486l-1.518,4.93c-0.132.41-.261,0.86-0.385,1.37s-0.261,1.1-.407,1.77h-0.044c-0.118-.57-0.246-1.11-0.385-1.63s-0.29-1.01-.451-1.49l-1.562-4.95h-2.882l3.652,10.78h2.926l1.54-4.82c0.132-.44.249-0.88,0.352-1.31s0.2-.88.286-1.35h0.044q0.132,0.705.3,1.35t0.363,1.29l1.584,4.84h2.948Zm5.409-12.26h2.684v-3.01h-2.684v3.01Zm2.662,12.26V1787.4h-2.64v10.78h2.64Zm3.529-8.67v5.46a5.348,5.348,0,0,0,.319,2.02,2.162,2.162,0,0,0,1.012,1.13,4.045,4.045,0,0,0,1.859.37,7.935,7.935,0,0,0,1.188-.1,4.186,4.186,0,0,0,.99-0.28v-2.09a3.628,3.628,0,0,1-.682.18,5.887,5.887,0,0,1-.836.06,1.93,1.93,0,0,1-.528-0.05,0.85,0.85,0,0,1-.352-0.21,1.026,1.026,0,0,1-.2-0.35,2.815,2.815,0,0,1-.1-0.61c-0.022-.27-0.033-0.7-0.033-1.28v-4.25h2.728v-2.11h-2.728v-3.87l-2.64.52v3.35h-1.716v2.11h1.716Zm7.409,8.67h2.64v-5.3a6.671,6.671,0,0,1,.209-1.85,2.739,2.739,0,0,1,.693-1.19,2.049,2.049,0,0,1,.7-0.44,2.474,2.474,0,0,1,.946-0.18,2.292,2.292,0,0,1,1.122.26,1.672,1.672,0,0,1,.7.73,3.168,3.168,0,0,1,.22.77,11.061,11.061,0,0,1,.066,1.48v5.72h2.64v-6.69a5.727,5.727,0,0,0-.462-2.45,3.157,3.157,0,0,0-1.364-1.48,4.465,4.465,0,0,0-2.178-.49,4.3,4.3,0,0,0-1.969.44,3.522,3.522,0,0,0-1.419,1.23h-0.022a17.916,17.916,0,0,0,.11-2.09v-4h-2.64v15.53Zm18.92,0h2.86v-5.26c0.66,0.01,1.65.02,2.97,0.02a9.948,9.948,0,0,0,3.6-.57,4.548,4.548,0,0,0,2.2-1.67,4.741,4.741,0,0,0,.737-2.69,4.894,4.894,0,0,0-.693-2.69,4.2,4.2,0,0,0-2.1-1.64,9.891,9.891,0,0,0-3.586-.55c-2,.01-3.989.03-5.984,0.04v15.01Zm8.987-8.71a2.188,2.188,0,0,1-1.122.82,5.878,5.878,0,0,1-1.947.28q-2.089,0-3.058-.03v-4.99c0.631-.02,1.65-0.02,3.058-0.02a6.21,6.21,0,0,1,1.947.26,2.1,2.1,0,0,1,1.122.83,2.588,2.588,0,0,1,.363,1.44A2.528,2.528,0,0,1,373.993,1789.47Zm7.427,2.24a4,4,0,0,1,.44-1.43,2.175,2.175,0,0,1,.88-0.89,2.572,2.572,0,0,1,1.254-.3,2.376,2.376,0,0,1,1.265.33,2.294,2.294,0,0,1,.847.93,3.1,3.1,0,0,1,.33,1.36H381.42Zm5.412,6.32a6.483,6.483,0,0,0,2.2-1.37l-1.144-1.67a4.5,4.5,0,0,1-1.551,1.08,5.118,5.118,0,0,1-1.9.35,3.4,3.4,0,0,1-1.54-.33,2.544,2.544,0,0,1-1.045-.97,3.689,3.689,0,0,1-.473-1.58h7.744a5.219,5.219,0,0,0,.11-1.17,6.082,6.082,0,0,0-.616-2.78,4.265,4.265,0,0,0-1.782-1.87,5.586,5.586,0,0,0-2.794-.65,5.827,5.827,0,0,0-2.9.71,4.749,4.749,0,0,0-1.914,2.02,7.276,7.276,0,0,0,.011,6.08,4.453,4.453,0,0,0,1.947,1.95,6.58,6.58,0,0,0,3.058.66A7.393,7.393,0,0,0,386.832,1798.03Zm14.938,0.15c-0.03-1.12-.048-2.02-0.055-2.72s-0.011-1.58-.011-2.65v-10.16h-2.64v4c0,0.69.022,1.31,0.066,1.87h-0.022a3.309,3.309,0,0,0-1.309-1.08,4.3,4.3,0,0,0-1.837-.37,4.848,4.848,0,0,0-2.64.72,4.789,4.789,0,0,0-1.76,2.04,6.946,6.946,0,0,0-.616,3,7.255,7.255,0,0,0,.572,2.95,4.473,4.473,0,0,0,1.661,2,4.913,4.913,0,0,0,4.62.25,3.39,3.39,0,0,0,1.419-1.28h0.022l0.044,1.43h2.486Zm-2.64-5.22a4.829,4.829,0,0,1-.308,1.79,2.555,2.555,0,0,1-.913,1.18,2.429,2.429,0,0,1-1.419.42,2.5,2.5,0,0,1-1.463-.44,2.726,2.726,0,0,1-.957-1.25,4.988,4.988,0,0,1-.33-1.87,5.132,5.132,0,0,1,.319-1.89,2.66,2.66,0,0,1,.924-1.25,2.467,2.467,0,0,1,1.441-.43,2.509,2.509,0,0,1,1.408.41,2.627,2.627,0,0,1,.957,1.18,4.332,4.332,0,0,1,.341,1.78v0.37Zm7.768-1.25a4,4,0,0,1,.44-1.43,2.175,2.175,0,0,1,.88-0.89,2.572,2.572,0,0,1,1.254-.3,2.376,2.376,0,0,1,1.265.33,2.294,2.294,0,0,1,.847.93,3.1,3.1,0,0,1,.33,1.36H406.9Zm5.412,6.32a6.483,6.483,0,0,0,2.2-1.37l-1.144-1.67a4.5,4.5,0,0,1-1.551,1.08,5.118,5.118,0,0,1-1.9.35,3.4,3.4,0,0,1-1.54-.33,2.544,2.544,0,0,1-1.045-.97,3.689,3.689,0,0,1-.473-1.58H414.6a5.219,5.219,0,0,0,.11-1.17,6.082,6.082,0,0,0-.616-2.78,4.265,4.265,0,0,0-1.782-1.87,5.586,5.586,0,0,0-2.794-.65,5.827,5.827,0,0,0-2.9.71,4.749,4.749,0,0,0-1.914,2.02,7.276,7.276,0,0,0,.011,6.08,4.453,4.453,0,0,0,1.947,1.95,6.58,6.58,0,0,0,3.058.66A7.393,7.393,0,0,0,412.31,1798.03Zm3.971-1.13a9.082,9.082,0,0,0,2.42,1.19,8.554,8.554,0,0,0,2.552.4,6.571,6.571,0,0,0,2.442-.43,3.568,3.568,0,0,0,1.606-1.22,3.143,3.143,0,0,0,.55-1.83,3.322,3.322,0,0,0-.363-1.6,2.944,2.944,0,0,0-1.133-1.11,7.655,7.655,0,0,0-2.255-.73,12.892,12.892,0,0,1-1.914-.48,1.492,1.492,0,0,1-.627-0.41,0.914,0.914,0,0,1-.2-0.58,0.841,0.841,0,0,1,.2-0.56,1.252,1.252,0,0,1,.572-0.35,2.885,2.885,0,0,1,.88-0.12,5.586,5.586,0,0,1,1.7.27,5.42,5.42,0,0,1,1.529.79l1.012-1.85a7.321,7.321,0,0,0-1.991-.89,7.72,7.72,0,0,0-2.211-.32,6.3,6.3,0,0,0-2.3.39,3.4,3.4,0,0,0-1.54,1.15,2.918,2.918,0,0,0-.539,1.76,3.266,3.266,0,0,0,.352,1.56,2.786,2.786,0,0,0,1.111,1.1,8.029,8.029,0,0,0,2.244.75,14.947,14.947,0,0,1,1.914.47,1.593,1.593,0,0,1,.638.41,0.874,0.874,0,0,1,.209.59,0.969,0.969,0,0,1-.473.87,2.637,2.637,0,0,1-1.4.3,5.722,5.722,0,0,1-2-.37,6.774,6.774,0,0,1-1.914-1.06Zm12.427-7.39v5.46a5.348,5.348,0,0,0,.319,2.02,2.166,2.166,0,0,0,1.012,1.13,4.048,4.048,0,0,0,1.859.37,7.935,7.935,0,0,0,1.188-.1,4.186,4.186,0,0,0,.99-0.28v-2.09a3.607,3.607,0,0,1-.682.18,5.877,5.877,0,0,1-.836.06,1.93,1.93,0,0,1-.528-0.05,0.856,0.856,0,0,1-.352-0.21,1.026,1.026,0,0,1-.2-0.35,2.815,2.815,0,0,1-.1-0.61c-0.022-.27-0.033-0.7-0.033-1.28v-4.25h2.728v-2.11h-2.728v-3.87l-2.64.52v3.35h-1.716v2.11h1.716Zm10.043,8.67v-3.65a9.877,9.877,0,0,1,.242-2.59,3.145,3.145,0,0,1,.792-1.35,2.366,2.366,0,0,1,.924-0.6,3.739,3.739,0,0,1,1.254-.19c0.22,0,.432,0,0.638.02v-2.71c-0.162-.01-0.36-0.02-0.594-0.02a3.406,3.406,0,0,0-1.892.55,4.658,4.658,0,0,0-1.5,1.69H438.6l-0.066-1.93h-2.486c0.029,1.41.047,2.45,0.055,3.14s0.011,1.48.011,2.36v5.28h2.64Zm5.608-12.26h2.684v-3.01h-2.684v3.01Zm2.662,12.26V1787.4h-2.64v10.78h2.64Zm3.223-.57a4.08,4.08,0,0,0,2.75.88,4.506,4.506,0,0,0,1.925-.41,3.963,3.963,0,0,0,1.485-1.22h0.022l0.044,1.32h2.486c-0.044-1.57-.066-2.65-0.066-3.23v-3.97a3.649,3.649,0,0,0-1.155-2.91,5.005,5.005,0,0,0-3.377-1,7.186,7.186,0,0,0-2.662.5,6.6,6.6,0,0,0-2.222,1.48l1.276,1.58a4.493,4.493,0,0,1,1.529-1.15,4.233,4.233,0,0,1,1.793-.39,2.371,2.371,0,0,1,1.617.5,1.819,1.819,0,0,1,.561,1.44v0.46a18.953,18.953,0,0,0-3.146.23,7.077,7.077,0,0,0-2.178.7,3.337,3.337,0,0,0-1.276,1.16,3,3,0,0,0-.418,1.61A3.052,3.052,0,0,0,450.244,1797.61Zm6.006-4.27v0.46a2.683,2.683,0,0,1-.33,1.31,2.634,2.634,0,0,1-.924.97,2.5,2.5,0,0,1-1.32.36,1.894,1.894,0,0,1-1.232-.36,1.289,1.289,0,0,1-.44-1.05,1.327,1.327,0,0,1,.22-0.78,1.6,1.6,0,0,1,.715-0.52,5.172,5.172,0,0,1,1.3-.29,16.088,16.088,0,0,1,2.013-.1h0Zm15.406,4.84v-6.69a4.75,4.75,0,0,0-1.023-3.3,3.823,3.823,0,0,0-2.981-1.12,4.348,4.348,0,0,0-2.024.46,3.6,3.6,0,0,0-1.43,1.3h-0.022l-0.044-1.43h-2.486c0.015,0.38.026,0.76,0.033,1.15s0.015,0.8.022,1.23,0.011,0.91.011,1.42v6.98h2.64v-5.3a6.671,6.671,0,0,1,.209-1.85,2.739,2.739,0,0,1,.693-1.19,2.049,2.049,0,0,1,.7-0.44,2.474,2.474,0,0,1,.946-0.18,2.292,2.292,0,0,1,1.122.26,1.672,1.672,0,0,1,.7.73,3.168,3.168,0,0,1,.22.77,11.061,11.061,0,0,1,.066,1.48v5.72h2.64Zm8.976,0c1.716,0,3.439,0,5.17.02a11.551,11.551,0,0,0,3.586-.48,6.118,6.118,0,0,0,3.982-3.92,9.275,9.275,0,0,0,.528-3.19,8.933,8.933,0,0,0-.506-3.09,6.445,6.445,0,0,0-1.5-2.37,6.33,6.33,0,0,0-2.5-1.53,12.3,12.3,0,0,0-3.707-.47c-1.878,0-3.564.01-5.06,0.02v15.01Zm2.838-12.63c0.425-.02,1.136-0.02,2.134-0.02a8.6,8.6,0,0,1,2.42.26,3.719,3.719,0,0,1,1.452.9,4.562,4.562,0,0,1,1.034,1.7,6.691,6.691,0,0,1,.374,2.29,7.317,7.317,0,0,1-.341,2.33,4.288,4.288,0,0,1-1.023,1.69,3.4,3.4,0,0,1-1.364.85,8.181,8.181,0,0,1-2.376.25q-1.035,0-2.31-.06v-10.19Zm15.248,6.16a4,4,0,0,1,.44-1.43,2.175,2.175,0,0,1,.88-0.89,2.572,2.572,0,0,1,1.254-.3,2.376,2.376,0,0,1,1.265.33,2.294,2.294,0,0,1,.847.93,3.1,3.1,0,0,1,.33,1.36h-5.016Zm5.412,6.32a6.483,6.483,0,0,0,2.2-1.37l-1.144-1.67a4.5,4.5,0,0,1-1.551,1.08,5.118,5.118,0,0,1-1.9.35,3.4,3.4,0,0,1-1.54-.33,2.544,2.544,0,0,1-1.045-.97,3.689,3.689,0,0,1-.473-1.58h7.744a5.219,5.219,0,0,0,.11-1.17,6.082,6.082,0,0,0-.616-2.78,4.265,4.265,0,0,0-1.782-1.87,5.586,5.586,0,0,0-2.794-.65,5.827,5.827,0,0,0-2.9.71,4.749,4.749,0,0,0-1.914,2.02,7.276,7.276,0,0,0,.011,6.08,4.453,4.453,0,0,0,1.947,1.95,6.58,6.58,0,0,0,3.058.66A7.393,7.393,0,0,0,504.13,1798.03Zm5.277-8.52v5.46a5.368,5.368,0,0,0,.319,2.02,2.166,2.166,0,0,0,1.012,1.13,4.048,4.048,0,0,0,1.859.37,7.935,7.935,0,0,0,1.188-.1,4.186,4.186,0,0,0,.99-0.28v-2.09a3.607,3.607,0,0,1-.682.18,5.866,5.866,0,0,1-.836.06,1.93,1.93,0,0,1-.528-0.05,0.856,0.856,0,0,1-.352-0.21,1.026,1.026,0,0,1-.2-0.35,2.815,2.815,0,0,1-.1-0.61c-0.022-.27-0.033-0.7-0.033-1.28v-4.25h2.728v-2.11h-2.728v-3.87l-2.64.52v3.35h-1.716v2.11h1.716Zm9.524,2.2a4,4,0,0,1,.44-1.43,2.175,2.175,0,0,1,.88-0.89,2.578,2.578,0,0,1,1.254-.3,2.373,2.373,0,0,1,1.265.33,2.287,2.287,0,0,1,.847.93,3.1,3.1,0,0,1,.33,1.36h-5.016Zm5.412,6.32a6.474,6.474,0,0,0,2.2-1.37l-1.144-1.67a4.5,4.5,0,0,1-1.551,1.08,5.114,5.114,0,0,1-1.9.35,3.4,3.4,0,0,1-1.54-.33,2.551,2.551,0,0,1-1.045-.97,3.7,3.7,0,0,1-.473-1.58h7.744a5.219,5.219,0,0,0,.11-1.17,6.069,6.069,0,0,0-.616-2.78,4.265,4.265,0,0,0-1.782-1.87,5.583,5.583,0,0,0-2.794-.65,5.827,5.827,0,0,0-2.9.71,4.749,4.749,0,0,0-1.914,2.02,7.276,7.276,0,0,0,.011,6.08,4.453,4.453,0,0,0,1.947,1.95,6.583,6.583,0,0,0,3.058.66A7.393,7.393,0,0,0,524.343,1798.03Zm12.056-3.64a3.173,3.173,0,0,1-1,1.42,2.408,2.408,0,0,1-1.507.48,2.381,2.381,0,0,1-1.408-.43,2.717,2.717,0,0,1-.913-1.24,4.951,4.951,0,0,1-.319-1.85,5.289,5.289,0,0,1,.308-1.89,2.562,2.562,0,0,1,.9-1.21,2.549,2.549,0,0,1,2.86.08,2.88,2.88,0,0,1,.924,1.41l2.4-.97a4.512,4.512,0,0,0-1.793-2.34,5.512,5.512,0,0,0-3.025-.78,5.613,5.613,0,0,0-2.838.71,4.711,4.711,0,0,0-1.881,2.02,6.631,6.631,0,0,0-.649,3.01,6.786,6.786,0,0,0,.627,3,4.453,4.453,0,0,0,1.848,1.98,5.742,5.742,0,0,0,2.871.7,5.35,5.35,0,0,0,2.981-.8,5.7,5.7,0,0,0,2.013-2.48Zm5.225-4.88v5.46a5.348,5.348,0,0,0,.319,2.02,2.162,2.162,0,0,0,1.012,1.13,4.045,4.045,0,0,0,1.859.37,7.935,7.935,0,0,0,1.188-.1,4.186,4.186,0,0,0,.99-0.28v-2.09a3.628,3.628,0,0,1-.682.18,5.887,5.887,0,0,1-.836.06,1.93,1.93,0,0,1-.528-0.05,0.85,0.85,0,0,1-.352-0.21,1.026,1.026,0,0,1-.2-0.35,2.815,2.815,0,0,1-.1-0.61c-0.022-.27-0.033-0.7-0.033-1.28v-4.25h2.728v-2.11h-2.728v-3.87l-2.64.52v3.35h-1.716v2.11h1.716Zm7.356-3.59h2.684v-3.01H548.98v3.01Zm2.662,12.26V1787.4H549v10.78h2.64Zm12.751-8.44a4.529,4.529,0,0,0-1.9-1.98,6.581,6.581,0,0,0-5.907.02,4.873,4.873,0,0,0-1.947,2.02,6.375,6.375,0,0,0-.682,3.01,6.6,6.6,0,0,0,.649,3.02,4.459,4.459,0,0,0,1.9,1.97,6.581,6.581,0,0,0,5.907-.02,4.779,4.779,0,0,0,1.947-2.01,6.408,6.408,0,0,0,.682-3A6.658,6.658,0,0,0,564.393,1789.74Zm-2.475,4.87a2.835,2.835,0,0,1-.946,1.24,2.491,2.491,0,0,1-1.474.44,2.574,2.574,0,0,1-1.463-.43,2.7,2.7,0,0,1-.957-1.24,5.239,5.239,0,0,1,0-3.66,2.755,2.755,0,0,1,.946-1.23,2.7,2.7,0,0,1,2.937-.01,2.639,2.639,0,0,1,.957,1.22,4.775,4.775,0,0,1,.33,1.85A4.655,4.655,0,0,1,561.918,1794.61Zm15.391,3.57v-6.69a4.75,4.75,0,0,0-1.023-3.3,3.822,3.822,0,0,0-2.981-1.12,4.351,4.351,0,0,0-2.024.46,3.6,3.6,0,0,0-1.43,1.3h-0.022l-0.044-1.43H567.3c0.014,0.38.025,0.76,0.032,1.15s0.015,0.8.022,1.23,0.011,0.91.011,1.42v6.98h2.64v-5.3a6.671,6.671,0,0,1,.209-1.85,2.758,2.758,0,0,1,.693-1.19,2.049,2.049,0,0,1,.7-0.44,2.478,2.478,0,0,1,.946-0.18,2.292,2.292,0,0,1,1.122.26,1.672,1.672,0,0,1,.7.73,3.168,3.168,0,0,1,.22.77,11.061,11.061,0,0,1,.066,1.48v5.72h2.64Z" transform="translate(-313.094 -1756.25)"/>
</svg>
