<svg xmlns="http://www.w3.org/2000/svg" width="135.5" height="21.125" viewBox="0 0 135.5 21.125">
  <defs>
    <style>
      .cls-1 {
        fill-rule: evenodd;
      }
    </style>
  </defs>
  <path id="Volvo_XC40_with_Pedestrian_Detection" data-name="Volvo XC40  with Pedestrian Detection" class="cls-1" d="M476.963,304.011l2.684-7.5h-1.562l-1.155,3.619q-0.4,1.167-.523,1.623c-0.084.3-.156,0.574-0.214,0.808h-0.022c-0.052-.242-0.121-0.509-0.209-0.8s-0.268-.832-0.539-1.617l-1.2-3.63h-1.595l2.673,7.5h1.661Zm8.122-4.218a2.276,2.276,0,0,0-.952-0.99,3,3,0,0,0-1.474-.347,2.961,2.961,0,0,0-1.479.358,2.434,2.434,0,0,0-.974,1.006,3.2,3.2,0,0,0-.341,1.507,3.324,3.324,0,0,0,.325,1.513,2.239,2.239,0,0,0,.951.984,3.034,3.034,0,0,0,1.474.341,2.992,2.992,0,0,0,1.48-.352,2.379,2.379,0,0,0,.973-1.006,3.2,3.2,0,0,0,.341-1.5A3.323,3.323,0,0,0,485.085,299.793Zm-1.238,2.436a1.385,1.385,0,0,1-.473.616,1.232,1.232,0,0,1-.737.22,1.263,1.263,0,0,1-.731-0.214,1.338,1.338,0,0,1-.479-0.616,2.4,2.4,0,0,1-.165-0.919,2.361,2.361,0,0,1,.165-0.913,1.4,1.4,0,0,1,.473-0.616,1.241,1.241,0,0,1,.737-0.22,1.265,1.265,0,0,1,.732.215,1.339,1.339,0,0,1,.478.61,2.389,2.389,0,0,1,.165.924A2.357,2.357,0,0,1,483.847,302.229Zm2.907,1.782h1.32v-7.766h-1.32v7.766Zm5.881,0,2.035-5.39h-1.463l-0.7,2.178q-0.165.561-.324,1.078c-0.107.345-.185,0.627-0.237,0.847h-0.033q-0.109-.44-0.264-0.946t-0.308-.979l-0.748-2.178h-1.5l2.035,5.39h1.507Zm7.754-4.218a2.274,2.274,0,0,0-.951-0.99,3,3,0,0,0-1.474-.347,2.962,2.962,0,0,0-1.48.358,2.425,2.425,0,0,0-.973,1.006,3.187,3.187,0,0,0-.341,1.507,3.324,3.324,0,0,0,.324,1.513,2.241,2.241,0,0,0,.952.984,3.031,3.031,0,0,0,1.474.341,2.991,2.991,0,0,0,1.479-.352,2.388,2.388,0,0,0,.974-1.006,3.207,3.207,0,0,0,.341-1.5A3.323,3.323,0,0,0,500.389,299.793Zm-1.237,2.436a1.392,1.392,0,0,1-.473.616,1.234,1.234,0,0,1-.737.22,1.264,1.264,0,0,1-.732-0.214,1.336,1.336,0,0,1-.478-0.616,2.4,2.4,0,0,1-.165-0.919,2.361,2.361,0,0,1,.165-0.913,1.39,1.39,0,0,1,.473-0.616,1.238,1.238,0,0,1,.737-0.22,1.264,1.264,0,0,1,.731.215,1.341,1.341,0,0,1,.479.61,2.389,2.389,0,0,1,.165.924A2.357,2.357,0,0,1,499.152,302.229Zm4.763,1.782h1.617l1.8-2.827,1.749,2.827h1.727l-2.574-3.96,2.332-3.542h-1.595l-1.562,2.464-1.518-2.464h-1.727l2.343,3.6Zm12.931-2.519a1.957,1.957,0,0,1-.7,1.045,1.989,1.989,0,0,1-1.21.363,1.923,1.923,0,0,1-1.094-.319,2.092,2.092,0,0,1-.748-0.924,3.8,3.8,0,0,1-.006-2.8,2.136,2.136,0,0,1,.732-0.924,1.835,1.835,0,0,1,1.072-.325,1.85,1.85,0,0,1,1.848,1.331l1.353-.385a3.223,3.223,0,0,0-1.2-1.65,3.391,3.391,0,0,0-1.98-.572,3.578,3.578,0,0,0-1.837.495,3.332,3.332,0,0,0-1.3,1.381,4.432,4.432,0,0,0-.457,2.062,4.515,4.515,0,0,0,.451,2.068,3.237,3.237,0,0,0,1.271,1.37,3.647,3.647,0,0,0,1.875.478,3.461,3.461,0,0,0,2.068-.605,3.235,3.235,0,0,0,1.2-1.749Zm7.472,2.519v-1.793h1.221v-1.155h-1.221v-4.554h-2.079l-3,4.609v1.1H522.9v1.793h1.419Zm-3.729-2.915,2.288-3.487h0.055q-0.021.518-.027,0.968t-0.006.979v1.507q-0.7.012-1.27,0.017c-0.378,0-.724.009-1.04,0.016h0Zm12.187-2.97a2.775,2.775,0,0,0-1.067-1.336,3.1,3.1,0,0,0-1.71-.457,3.128,3.128,0,0,0-1.716.462,2.92,2.92,0,0,0-1.111,1.353,5.357,5.357,0,0,0-.385,2.134,5.608,5.608,0,0,0,.357,2.112,2.773,2.773,0,0,0,1.067,1.337,3.428,3.428,0,0,0,3.427-.006,2.926,2.926,0,0,0,1.111-1.353,5.371,5.371,0,0,0,.385-2.134A5.614,5.614,0,0,0,532.776,298.126Zm-1.562,4.164a1.511,1.511,0,0,1-2.508-.006,3.964,3.964,0,0,1-.412-2.035,3.906,3.906,0,0,1,.412-2.018,1.51,1.51,0,0,1,2.508,0,3.968,3.968,0,0,1,.413,2.035A3.909,3.909,0,0,1,531.214,302.29Zm-89.075,14.921,1.815-5.39h-1.408l-0.715,2.475c-0.081.294-.156,0.572-0.226,0.836s-0.126.506-.17,0.726h-0.022q-0.1-.406-0.209-0.808t-0.22-.754l-0.781-2.475H438.96l-0.759,2.464q-0.1.309-.193,0.688t-0.2.885h-0.022q-0.089-.429-0.193-0.814c-0.069-.256-0.145-0.506-0.225-0.748l-0.781-2.475h-1.441l1.826,5.39h1.463l0.77-2.409c0.066-.22.124-0.438,0.176-0.654s0.1-.442.143-0.677h0.022q0.066,0.353.148,0.677c0.055,0.216.116,0.431,0.182,0.643l0.792,2.42h1.474Zm2.875-6.127h1.342v-1.507h-1.342v1.507Zm1.331,6.127v-5.39h-1.32v5.39h1.32Zm1.94-4.334v2.728a2.687,2.687,0,0,0,.16,1.012,1.081,1.081,0,0,0,.506.567,2.014,2.014,0,0,0,.929.181,3.607,3.607,0,0,0,.594-0.049,2.052,2.052,0,0,0,.5-0.138v-1.045a1.493,1.493,0,0,1-.341.088,2.667,2.667,0,0,1-.418.033,1.038,1.038,0,0,1-.264-0.027,0.392,0.392,0,0,1-.176-0.1,0.517,0.517,0,0,1-.1-0.176,1.38,1.38,0,0,1-.049-0.3c-0.011-.136-0.017-0.35-0.017-0.644v-2.123h1.364v-1.056h-1.364v-1.936l-1.32.264v1.672h-0.858v1.056h0.858Zm3.878,4.334h1.32V314.56a3.369,3.369,0,0,1,.1-0.924,1.384,1.384,0,0,1,.347-0.594,1.035,1.035,0,0,1,.352-0.22,1.271,1.271,0,0,1,.473-0.088,1.157,1.157,0,0,1,.561.127,0.835,0.835,0,0,1,.352.368,1.593,1.593,0,0,1,.11.385,5.508,5.508,0,0,1,.033.737v2.86h1.32v-3.344a2.868,2.868,0,0,0-.231-1.226,1.593,1.593,0,0,0-.682-0.737,2.235,2.235,0,0,0-1.089-.248,2.2,2.2,0,0,0-.985.22,1.785,1.785,0,0,0-.709.616h-0.011a9.057,9.057,0,0,0,.055-1.045v-2h-1.32v7.766Zm9.46,0h1.43v-2.629q0.5,0.012,1.485.011a4.952,4.952,0,0,0,1.8-.286,2.264,2.264,0,0,0,1.1-.836,2.352,2.352,0,0,0,.369-1.342,2.461,2.461,0,0,0-.347-1.347,2.108,2.108,0,0,0-1.05-.82,4.991,4.991,0,0,0-1.793-.275l-2.992.022v7.5Zm4.493-4.356a1.087,1.087,0,0,1-.561.413,2.892,2.892,0,0,1-.973.137q-1.046,0-1.529-.011v-2.5q0.472-.011,1.529-0.011a3.01,3.01,0,0,1,.973.132,1.051,1.051,0,0,1,.561.413,1.3,1.3,0,0,1,.182.72A1.254,1.254,0,0,1,466.116,312.855ZM470,313.977a2.011,2.011,0,0,1,.22-0.715,1.1,1.1,0,0,1,.44-0.445,1.3,1.3,0,0,1,.627-0.149,1.19,1.19,0,0,1,.633.165,1.14,1.14,0,0,1,.423.462,1.553,1.553,0,0,1,.165.682H470Zm2.706,3.163a3.272,3.272,0,0,0,1.1-.688l-0.572-.836a2.169,2.169,0,0,1-.775.539,2.5,2.5,0,0,1-.952.176,1.7,1.7,0,0,1-.77-0.165,1.249,1.249,0,0,1-.522-0.484,1.857,1.857,0,0,1-.237-0.792h3.872a2.555,2.555,0,0,0,.055-0.583,3.038,3.038,0,0,0-.308-1.391,2.148,2.148,0,0,0-.891-0.935,2.832,2.832,0,0,0-1.4-.325,2.884,2.884,0,0,0-1.452.358,2.37,2.37,0,0,0-.957,1.006,3.64,3.64,0,0,0,.006,3.042,2.231,2.231,0,0,0,.973.973,3.293,3.293,0,0,0,1.529.33A3.693,3.693,0,0,0,472.709,317.14Zm7.633,0.071q-0.022-.836-0.027-1.358t-0.006-1.326v-5.082h-1.32v2q0,0.517.033,0.935h-0.011a1.662,1.662,0,0,0-.654-0.539,2.164,2.164,0,0,0-.919-0.187,2.409,2.409,0,0,0-1.32.363,2.369,2.369,0,0,0-.88,1.018,3.491,3.491,0,0,0-.308,1.5,3.613,3.613,0,0,0,.286,1.474,2.222,2.222,0,0,0,.831,1,2.489,2.489,0,0,0,2.31.127,1.677,1.677,0,0,0,.709-0.644h0.011l0.022,0.715h1.243Zm-1.32-2.607a2.376,2.376,0,0,1-.154.891,1.276,1.276,0,0,1-.456.594,1.215,1.215,0,0,1-.71.209,1.237,1.237,0,0,1-.731-0.22,1.365,1.365,0,0,1-.479-0.627,2.472,2.472,0,0,1-.165-0.935,2.572,2.572,0,0,1,.16-0.946,1.328,1.328,0,0,1,.462-0.621,1.21,1.21,0,0,1,.72-0.215,1.245,1.245,0,0,1,.7.2,1.336,1.336,0,0,1,.479.588,2.2,2.2,0,0,1,.17.891V314.6Zm4.057-.627a2.011,2.011,0,0,1,.22-0.715,1.1,1.1,0,0,1,.44-0.445,1.3,1.3,0,0,1,.627-0.149,1.184,1.184,0,0,1,.632.165,1.149,1.149,0,0,1,.424.462,1.553,1.553,0,0,1,.165.682h-2.508Zm2.706,3.163a3.282,3.282,0,0,0,1.1-.688l-0.572-.836a2.172,2.172,0,0,1-.776.539,2.492,2.492,0,0,1-.951.176,1.7,1.7,0,0,1-.77-0.165,1.258,1.258,0,0,1-.523-0.484,1.843,1.843,0,0,1-.236-0.792h3.872a2.555,2.555,0,0,0,.055-0.583,3.051,3.051,0,0,0-.308-1.391,2.148,2.148,0,0,0-.891-0.935,2.834,2.834,0,0,0-1.4-.325,2.884,2.884,0,0,0-1.452.358,2.37,2.37,0,0,0-.957,1.006,3.645,3.645,0,0,0,0,3.042,2.234,2.234,0,0,0,.974.973,3.29,3.29,0,0,0,1.529.33A3.693,3.693,0,0,0,485.785,317.14Zm2.153-.567a4.622,4.622,0,0,0,1.21.594,4.212,4.212,0,0,0,1.276.2,3.226,3.226,0,0,0,1.221-.214,1.748,1.748,0,0,0,.8-0.611,1.563,1.563,0,0,0,.275-0.913,1.652,1.652,0,0,0-.182-0.8,1.429,1.429,0,0,0-.566-0.556,3.912,3.912,0,0,0-1.128-.368,6.581,6.581,0,0,1-.957-0.237,0.767,0.767,0,0,1-.313-0.209,0.436,0.436,0,0,1-.1-0.286,0.415,0.415,0,0,1,.1-0.28,0.611,0.611,0,0,1,.286-0.176,1.438,1.438,0,0,1,.44-0.061,2.732,2.732,0,0,1,.852.138,2.682,2.682,0,0,1,.765.39l0.506-.924a3.7,3.7,0,0,0-1-.445,4,4,0,0,0-1.105-.16,3.111,3.111,0,0,0-1.15.2,1.683,1.683,0,0,0-.77.572,1.465,1.465,0,0,0-.269.88,1.628,1.628,0,0,0,.176.781,1.4,1.4,0,0,0,.555.55,3.861,3.861,0,0,0,1.122.374,7.914,7.914,0,0,1,.957.237,0.8,0.8,0,0,1,.319.2,0.438,0.438,0,0,1,.105.3,0.482,0.482,0,0,1-.237.435,1.328,1.328,0,0,1-.7.148,2.948,2.948,0,0,1-1-.181,3.412,3.412,0,0,1-.957-0.534Zm6.381-3.7v2.728a2.689,2.689,0,0,0,.159,1.012,1.081,1.081,0,0,0,.506.567,2.015,2.015,0,0,0,.93.181,3.607,3.607,0,0,0,.594-0.049,2.052,2.052,0,0,0,.5-0.138v-1.045a1.507,1.507,0,0,1-.341.088,2.686,2.686,0,0,1-.418.033,1.038,1.038,0,0,1-.264-0.027,0.386,0.386,0,0,1-.176-0.1,0.517,0.517,0,0,1-.1-0.176,1.368,1.368,0,0,1-.05-0.3c-0.011-.136-0.016-0.35-0.016-0.644v-2.123H497v-1.056h-1.364v-1.936l-1.32.264v1.672h-0.858v1.056h0.858Zm5.193,4.334v-1.826a4.907,4.907,0,0,1,.121-1.292,1.575,1.575,0,0,1,.4-0.677,1.159,1.159,0,0,1,.462-0.3,1.842,1.842,0,0,1,.627-0.1c0.11,0,.216,0,0.319.011v-1.353c-0.081-.007-0.18-0.011-0.3-0.011a1.719,1.719,0,0,0-.946.275,2.315,2.315,0,0,0-.748.847h-0.011l-0.033-.968h-1.243q0.021,1.056.027,1.573t0.006,1.177v2.64h1.32Zm2.973-6.127h1.342v-1.507h-1.342v1.507Zm1.331,6.127v-5.39H502.5v5.39h1.32Zm1.784-.286a2.02,2.02,0,0,0,1.375.44,2.239,2.239,0,0,0,.963-0.2,1.974,1.974,0,0,0,.742-0.611h0.011l0.022,0.66h1.243q-0.033-1.176-.033-1.611v-1.986a1.823,1.823,0,0,0-.577-1.457,2.509,2.509,0,0,0-1.689-.5,3.537,3.537,0,0,0-1.331.253,3.325,3.325,0,0,0-1.111.737l0.638,0.792a2.276,2.276,0,0,1,.765-0.577,2.145,2.145,0,0,1,.9-0.193,1.182,1.182,0,0,1,.808.248,0.906,0.906,0,0,1,.281.72v0.231a9.256,9.256,0,0,0-1.573.116,3.51,3.51,0,0,0-1.089.352,1.67,1.67,0,0,0-.638.577A1.68,1.68,0,0,0,505.6,316.925Zm3-2.134v0.231a1.347,1.347,0,0,1-.165.655,1.27,1.27,0,0,1-.462.484,1.24,1.24,0,0,1-.66.181,0.942,0.942,0,0,1-.616-0.181,0.638,0.638,0,0,1-.22-0.523,0.671,0.671,0,0,1,.11-0.39,0.765,0.765,0,0,1,.358-0.259,2.665,2.665,0,0,1,.648-0.148,8.469,8.469,0,0,1,1.007-.05h0Zm7.877,2.42v-3.344a2.372,2.372,0,0,0-.511-1.65,1.916,1.916,0,0,0-1.491-.561,2.188,2.188,0,0,0-1.012.231,1.8,1.8,0,0,0-.715.649H512.74l-0.022-.715h-1.243c0.007,0.191.013,0.384,0.017,0.578s0.007,0.4.011,0.616,0,0.453,0,.709v3.487h1.32V314.56a3.326,3.326,0,0,1,.105-0.924,1.382,1.382,0,0,1,.346-0.594,1.035,1.035,0,0,1,.352-0.22,1.275,1.275,0,0,1,.473-0.088,1.157,1.157,0,0,1,.561.127,0.835,0.835,0,0,1,.352.368,1.593,1.593,0,0,1,.11.385,5.508,5.508,0,0,1,.033.737v2.86h1.32Zm4.488,0q1.287,0,2.585.011a5.711,5.711,0,0,0,1.793-.242,3.182,3.182,0,0,0,1.243-.748,3.245,3.245,0,0,0,.748-1.21,4.633,4.633,0,0,0,.264-1.595,4.439,4.439,0,0,0-.253-1.545,3.231,3.231,0,0,0-.748-1.183,3.113,3.113,0,0,0-1.249-.764,6.045,6.045,0,0,0-1.853-.237q-1.409,0-2.53.011v7.5Zm1.419-6.314c0.213-.007.568-0.011,1.067-0.011a4.173,4.173,0,0,1,1.21.132,1.816,1.816,0,0,1,.726.451,2.276,2.276,0,0,1,.517.847,3.336,3.336,0,0,1,.187,1.144,3.637,3.637,0,0,1-.171,1.166,2.133,2.133,0,0,1-.511.847,1.7,1.7,0,0,1-.682.424,4.119,4.119,0,0,1-1.188.126q-0.518,0-1.155-.033V310.9Zm7.8,3.08a1.991,1.991,0,0,1,.22-0.715,1.09,1.09,0,0,1,.44-0.445,1.3,1.3,0,0,1,.627-0.149,1.186,1.186,0,0,1,.632.165,1.149,1.149,0,0,1,.424.462,1.581,1.581,0,0,1,.165.682h-2.508Zm2.706,3.163a3.282,3.282,0,0,0,1.1-.688l-0.572-.836a2.181,2.181,0,0,1-.776.539,2.5,2.5,0,0,1-.951.176,1.7,1.7,0,0,1-.77-0.165,1.252,1.252,0,0,1-.523-0.484,1.843,1.843,0,0,1-.236-0.792h3.872a2.613,2.613,0,0,0,.055-0.583,3.051,3.051,0,0,0-.308-1.391,2.159,2.159,0,0,0-.891-0.935,2.837,2.837,0,0,0-1.4-.325,2.884,2.884,0,0,0-1.452.358,2.37,2.37,0,0,0-.957,1.006,3.645,3.645,0,0,0,0,3.042,2.228,2.228,0,0,0,.974.973,3.29,3.29,0,0,0,1.529.33A3.7,3.7,0,0,0,532.891,317.14Zm2.806-4.263v2.728a2.689,2.689,0,0,0,.159,1.012,1.081,1.081,0,0,0,.506.567,2.015,2.015,0,0,0,.93.181,3.607,3.607,0,0,0,.594-0.049,2.052,2.052,0,0,0,.5-0.138v-1.045a1.507,1.507,0,0,1-.341.088,2.686,2.686,0,0,1-.418.033,1.038,1.038,0,0,1-.264-0.027,0.386,0.386,0,0,1-.176-0.1,0.517,0.517,0,0,1-.1-0.176,1.368,1.368,0,0,1-.05-0.3c-0.011-.136-0.016-0.35-0.016-0.644v-2.123h1.364v-1.056h-1.364v-1.936l-1.32.264v1.672h-0.858v1.056H535.7Zm4.933,1.1a2.011,2.011,0,0,1,.22-0.715,1.1,1.1,0,0,1,.44-0.445,1.3,1.3,0,0,1,.627-0.149,1.19,1.19,0,0,1,.633.165,1.154,1.154,0,0,1,.423.462,1.553,1.553,0,0,1,.165.682H540.63Zm2.706,3.163a3.282,3.282,0,0,0,1.1-.688l-0.572-.836a2.178,2.178,0,0,1-.775.539,2.5,2.5,0,0,1-.952.176,1.7,1.7,0,0,1-.77-0.165,1.249,1.249,0,0,1-.522-0.484,1.83,1.83,0,0,1-.237-0.792h3.872a2.555,2.555,0,0,0,.055-0.583,3.051,3.051,0,0,0-.308-1.391,2.148,2.148,0,0,0-.891-0.935,2.834,2.834,0,0,0-1.4-.325,2.884,2.884,0,0,0-1.452.358,2.37,2.37,0,0,0-.957,1.006,3.64,3.64,0,0,0,.006,3.042,2.226,2.226,0,0,0,.973.973,3.29,3.29,0,0,0,1.529.33A3.693,3.693,0,0,0,543.336,317.14Zm6.194-1.821a1.6,1.6,0,0,1-.5.71,1.215,1.215,0,0,1-.754.236,1.171,1.171,0,0,1-.7-0.214,1.345,1.345,0,0,1-.456-0.616,2.5,2.5,0,0,1-.16-0.93,2.613,2.613,0,0,1,.154-0.94,1.25,1.25,0,0,1,.451-0.605,1.26,1.26,0,0,1,1.43.038,1.455,1.455,0,0,1,.462.7l1.2-.484a2.258,2.258,0,0,0-.9-1.171,3.058,3.058,0,0,0-2.932-.033,2.35,2.35,0,0,0-.94,1.006,3.321,3.321,0,0,0-.325,1.507,3.393,3.393,0,0,0,.314,1.5,2.237,2.237,0,0,0,.924.99,2.858,2.858,0,0,0,1.435.346,2.682,2.682,0,0,0,1.491-.4,2.88,2.88,0,0,0,1.006-1.243Zm2.771-2.442v2.728a2.689,2.689,0,0,0,.159,1.012,1.086,1.086,0,0,0,.506.567,2.015,2.015,0,0,0,.93.181,3.607,3.607,0,0,0,.594-0.049,2.052,2.052,0,0,0,.5-0.138v-1.045a1.507,1.507,0,0,1-.341.088,2.686,2.686,0,0,1-.418.033,1.038,1.038,0,0,1-.264-0.027,0.386,0.386,0,0,1-.176-0.1,0.517,0.517,0,0,1-.1-0.176,1.368,1.368,0,0,1-.05-0.3c-0.011-.136-0.016-0.35-0.016-0.644v-2.123h1.364v-1.056h-1.364v-1.936l-1.32.264v1.672h-0.858v1.056H552.3Zm3.851-1.793h1.342v-1.507h-1.342v1.507Zm1.331,6.127v-5.39h-1.32v5.39h1.32Zm6.551-4.218a2.274,2.274,0,0,0-.951-0.99,3,3,0,0,0-1.474-.347,2.962,2.962,0,0,0-1.48.358,2.432,2.432,0,0,0-.973,1.006,3.187,3.187,0,0,0-.341,1.507,3.324,3.324,0,0,0,.324,1.513,2.247,2.247,0,0,0,.952.984,3.031,3.031,0,0,0,1.474.341,2.988,2.988,0,0,0,1.479-.352,2.388,2.388,0,0,0,.974-1.006,3.207,3.207,0,0,0,.341-1.5A3.31,3.31,0,0,0,564.034,312.993Zm-1.237,2.436a1.392,1.392,0,0,1-.473.616,1.234,1.234,0,0,1-.737.22,1.264,1.264,0,0,1-.732-0.214,1.336,1.336,0,0,1-.478-0.616,2.4,2.4,0,0,1-.165-0.919,2.361,2.361,0,0,1,.165-0.913,1.39,1.39,0,0,1,.473-0.616,1.238,1.238,0,0,1,.737-0.22,1.264,1.264,0,0,1,.731.215,1.341,1.341,0,0,1,.479.61,2.389,2.389,0,0,1,.165.924A2.357,2.357,0,0,1,562.8,315.429Zm7.867,1.782v-3.344a2.372,2.372,0,0,0-.511-1.65,1.916,1.916,0,0,0-1.491-.561,2.188,2.188,0,0,0-1.012.231,1.8,1.8,0,0,0-.715.649h-0.011l-0.022-.715h-1.243c0.007,0.191.013,0.384,0.017,0.578s0.007,0.4.011,0.616,0,0.453,0,.709v3.487h1.32V314.56a3.326,3.326,0,0,1,.105-0.924,1.382,1.382,0,0,1,.346-0.594,1.035,1.035,0,0,1,.352-0.22,1.275,1.275,0,0,1,.473-0.088,1.157,1.157,0,0,1,.561.127,0.835,0.835,0,0,1,.352.368,1.593,1.593,0,0,1,.11.385,5.508,5.508,0,0,1,.033.737v2.86h1.32Z" transform="translate(-435.156 -296.25)"/>
</svg>
