<svg xmlns="http://www.w3.org/2000/svg" width="250.22" height="10.094" viewBox="0 0 250.22 10.094">
  <defs>
    <style>
      .cls-1 {
        fill-rule: evenodd;
      }
    </style>
  </defs>
  <path id="Volvo_XC40_with_Pedestrian_Detection" data-name="Volvo XC40 with Pedestrian Detection" class="cls-1" d="M1158.18,166.129l3.42-9.548h-1.99l-1.47,4.606q-0.51,1.485-.66,2.065c-0.11.388-.2,0.731-0.28,1.029h-0.03c-0.06-.308-0.15-0.648-0.26-1.022s-0.34-1.059-.69-2.058l-1.52-4.62h-2.03l3.4,9.548h2.11Zm10.17-5.369a2.877,2.877,0,0,0-1.21-1.26,4.169,4.169,0,0,0-3.76.014,3.148,3.148,0,0,0-1.24,1.281,4.057,4.057,0,0,0-.43,1.918,4.293,4.293,0,0,0,.41,1.925,2.889,2.889,0,0,0,1.21,1.253,3.9,3.9,0,0,0,1.88.434,3.773,3.773,0,0,0,1.88-.448,3.018,3.018,0,0,0,1.24-1.281,4.068,4.068,0,0,0,.44-1.911A4.167,4.167,0,0,0,1168.35,160.76Zm-1.57,3.1a1.775,1.775,0,0,1-.6.784,1.6,1.6,0,0,1-.94.28,1.58,1.58,0,0,1-.93-0.273,1.678,1.678,0,0,1-.61-0.784,3.051,3.051,0,0,1-.21-1.169,3,3,0,0,1,.21-1.162,1.781,1.781,0,0,1,.6-0.784,1.566,1.566,0,0,1,.94-0.28,1.625,1.625,0,0,1,.93.273,1.684,1.684,0,0,1,.61.777,3.041,3.041,0,0,1,.21,1.176A3,3,0,0,1,1166.78,163.861Zm3.56,2.268h1.68v-9.884h-1.68v9.884Zm7.34,0,2.59-6.86h-1.86l-0.9,2.772c-0.14.476-.27,0.934-0.41,1.372s-0.24.8-.3,1.078h-0.04c-0.1-.373-0.21-0.774-0.34-1.2s-0.26-.844-0.39-1.246l-0.95-2.772h-1.91l2.59,6.86h1.92Zm9.72-5.369a2.824,2.824,0,0,0-1.21-1.26,4.169,4.169,0,0,0-3.76.014,3.063,3.063,0,0,0-1.23,1.281,4.06,4.06,0,0,0-.44,1.918,4.293,4.293,0,0,0,.41,1.925,2.857,2.857,0,0,0,1.22,1.253,3.828,3.828,0,0,0,1.87.434,3.773,3.773,0,0,0,1.88-.448,3.018,3.018,0,0,0,1.24-1.281,4.068,4.068,0,0,0,.44-1.911A4.167,4.167,0,0,0,1187.4,160.76Zm-1.57,3.1a1.775,1.775,0,0,1-.6.784,1.719,1.719,0,0,1-1.87.007,1.678,1.678,0,0,1-.61-0.784,3.051,3.051,0,0,1-.21-1.169,3,3,0,0,1,.21-1.162,1.781,1.781,0,0,1,.6-0.784,1.588,1.588,0,0,1,.94-0.28,1.625,1.625,0,0,1,.93.273,1.684,1.684,0,0,1,.61.777,3.041,3.041,0,0,1,.21,1.176A3,3,0,0,1,1185.83,163.861Zm6.06,2.268h2.06l2.3-3.6,2.22,3.6h2.2l-3.28-5.04,2.97-4.508h-2.03l-1.99,3.136-1.93-3.136h-2.2l2.99,4.578Zm16.3-3.206a2.394,2.394,0,0,1-2.44,1.792,2.456,2.456,0,0,1-1.39-.406,2.717,2.717,0,0,1-.95-1.176,4.345,4.345,0,0,1-.34-1.792,4.43,4.43,0,0,1,.33-1.771,2.827,2.827,0,0,1,.93-1.176,2.346,2.346,0,0,1,1.37-.413,2.445,2.445,0,0,1,1.45.434,2.479,2.479,0,0,1,.9,1.26l1.72-.49a4.109,4.109,0,0,0-1.52-2.1,4.315,4.315,0,0,0-2.52-.728,4.564,4.564,0,0,0-2.34.63,4.256,4.256,0,0,0-1.66,1.757,5.623,5.623,0,0,0-.58,2.625,5.786,5.786,0,0,0,.57,2.632,4.081,4.081,0,0,0,1.62,1.743,4.633,4.633,0,0,0,2.39.609,4.415,4.415,0,0,0,2.63-.77,4.058,4.058,0,0,0,1.52-2.226Zm9.37,3.206v-2.282h1.55v-1.47h-1.55v-5.8h-2.65l-3.82,5.866v1.4h4.66v2.282h1.81Zm-4.75-3.71,2.91-4.438h0.07c-0.01.439-.03,0.85-0.03,1.232s-0.01.8-.01,1.246v1.918c-0.59.01-1.13,0.017-1.61,0.021s-0.93.012-1.33,0.021h0Zm15.36-3.78a3.535,3.535,0,0,0-1.36-1.7,3.934,3.934,0,0,0-2.17-.581,4.011,4.011,0,0,0-2.19.588,3.711,3.711,0,0,0-1.41,1.722,6.767,6.767,0,0,0-.49,2.716,7.2,7.2,0,0,0,.45,2.688,3.584,3.584,0,0,0,1.36,1.7,4.358,4.358,0,0,0,4.36-.007,3.729,3.729,0,0,0,1.42-1.722,6.94,6.94,0,0,0,.49-2.716A7.2,7.2,0,0,0,1228.17,158.639Zm-1.99,5.3a1.921,1.921,0,0,1-3.19-.007,5.051,5.051,0,0,1-.52-2.59,4.979,4.979,0,0,1,.52-2.569,1.921,1.921,0,0,1,3.19.007,5.044,5.044,0,0,1,.53,2.59A4.965,4.965,0,0,1,1226.18,163.938Zm15.93,2.191,2.31-6.86h-1.79l-0.91,3.15c-0.11.374-.2,0.728-0.29,1.064s-0.16.644-.22,0.924h-0.03c-0.08-.345-0.17-0.688-0.26-1.029s-0.19-.66-0.28-0.959l-1-3.15h-1.58l-0.96,3.136c-0.09.262-.17,0.553-0.25,0.875s-0.17.7-.26,1.127h-0.03q-0.105-.546-0.24-1.036c-0.09-.326-0.19-0.644-0.29-0.952l-0.99-3.15h-1.84l2.33,6.86h1.86l0.98-3.066c0.08-.28.16-0.557,0.22-0.833s0.13-.562.19-0.861h0.02c0.06,0.3.12,0.586,0.19,0.861s0.15,0.549.23,0.819l1.01,3.08h1.88Zm3.51-7.8h1.71v-1.918h-1.71v1.918Zm1.7,7.8v-6.86h-1.68v6.86h1.68Zm2.32-5.516v3.472a3.529,3.529,0,0,0,.2,1.288,1.382,1.382,0,0,0,.65.721,2.523,2.523,0,0,0,1.18.231,4.732,4.732,0,0,0,.76-0.063,2.672,2.672,0,0,0,.63-0.175v-1.33a2.059,2.059,0,0,1-.44.112,3.381,3.381,0,0,1-.53.042,1.334,1.334,0,0,1-.34-0.035,0.476,0.476,0,0,1-.22-0.133,0.637,0.637,0,0,1-.13-0.224,2.091,2.091,0,0,1-.06-0.385c-0.01-.172-0.02-0.445-0.02-0.819v-2.7h1.74v-1.344h-1.74v-2.464l-1.68.336v2.128h-1.09v1.344h1.09Zm4.79,5.516h1.68v-3.374a4.63,4.63,0,0,1,.13-1.176,1.746,1.746,0,0,1,.45-0.756,1.327,1.327,0,0,1,.44-0.28,1.654,1.654,0,0,1,.61-0.112,1.466,1.466,0,0,1,.71.161,1.091,1.091,0,0,1,.45.469,2.392,2.392,0,0,1,.14.49,6.767,6.767,0,0,1,.04.938v3.64h1.68v-4.256a3.753,3.753,0,0,0-.29-1.561,2.061,2.061,0,0,0-.87-0.938,2.882,2.882,0,0,0-1.39-.315,2.785,2.785,0,0,0-1.25.28,2.224,2.224,0,0,0-.9.784h-0.02a10.66,10.66,0,0,0,.07-1.33v-2.548h-1.68v9.884Zm12.04,0h1.82v-3.346q0.63,0.015,1.89.014a6.291,6.291,0,0,0,2.29-.364,2.873,2.873,0,0,0,1.4-1.064,3.018,3.018,0,0,0,.47-1.708,3.169,3.169,0,0,0-.44-1.715,2.7,2.7,0,0,0-1.34-1.043,6.36,6.36,0,0,0-2.28-.35l-3.81.028v9.548Zm5.72-5.544a1.359,1.359,0,0,1-.71.525,3.74,3.74,0,0,1-1.24.175q-1.335,0-1.95-.014v-3.178q0.6-.013,1.95-0.014a3.893,3.893,0,0,1,1.24.168,1.319,1.319,0,0,1,.71.525,1.7,1.7,0,0,1,.23.917A1.629,1.629,0,0,1,1272.19,160.585Zm4.8,1.428a2.618,2.618,0,0,1,.28-0.91,1.415,1.415,0,0,1,.56-0.567,1.676,1.676,0,0,1,.8-0.189,1.527,1.527,0,0,1,.81.21,1.45,1.45,0,0,1,.54.588,2.006,2.006,0,0,1,.21.868h-3.2Zm3.45,4.025a4.2,4.2,0,0,0,1.4-.875l-0.73-1.064a2.776,2.776,0,0,1-.99.686,3.178,3.178,0,0,1-1.21.224,2.175,2.175,0,0,1-.98-0.21,1.563,1.563,0,0,1-.66-0.616,2.17,2.17,0,0,1-.3-1.008h4.92a3.1,3.1,0,0,0,.07-0.742,3.9,3.9,0,0,0-.39-1.771,2.755,2.755,0,0,0-1.13-1.19,3.63,3.63,0,0,0-1.78-.413,3.671,3.671,0,0,0-1.85.455,3.04,3.04,0,0,0-1.22,1.281,4.178,4.178,0,0,0-.42,1.918,4.232,4.232,0,0,0,.43,1.953,2.875,2.875,0,0,0,1.24,1.239,4.19,4.19,0,0,0,1.95.42A4.684,4.684,0,0,0,1280.44,166.038Zm9.58,0.091c-0.02-.709-0.03-1.285-0.04-1.729v-8.155h-1.68v2.548c0,0.439.01,0.836,0.04,1.19h-0.02a2.07,2.07,0,0,0-.83-0.686,2.747,2.747,0,0,0-1.17-.238,3.09,3.09,0,0,0-1.68.462,3.04,3.04,0,0,0-1.12,1.3,4.463,4.463,0,0,0-.39,1.911,4.65,4.65,0,0,0,.36,1.876,2.891,2.891,0,0,0,1.06,1.274,2.939,2.939,0,0,0,1.63.448,2.905,2.905,0,0,0,1.31-.287,2.081,2.081,0,0,0,.9-0.819h0.02l0.03,0.91h1.58Zm-1.68-3.318a3.045,3.045,0,0,1-.2,1.134,1.591,1.591,0,0,1-.58.756,1.67,1.67,0,0,1-1.83-.014,1.713,1.713,0,0,1-.61-0.8,3.147,3.147,0,0,1-.21-1.19,3.2,3.2,0,0,1,.2-1.2,1.709,1.709,0,0,1,.59-0.791,1.528,1.528,0,0,1,.92-0.273,1.585,1.585,0,0,1,.89.259,1.674,1.674,0,0,1,.61.749,2.859,2.859,0,0,1,.22,1.134v0.238Zm5.02-.8a2.423,2.423,0,0,1,.28-0.91,1.355,1.355,0,0,1,.56-0.567,1.648,1.648,0,0,1,.8-0.189,1.516,1.516,0,0,1,.8.21,1.45,1.45,0,0,1,.54.588,2.006,2.006,0,0,1,.21.868h-3.19Zm3.44,4.025a4.2,4.2,0,0,0,1.4-.875l-0.73-1.064a2.74,2.74,0,0,1-.98.686,3.215,3.215,0,0,1-1.21.224,2.145,2.145,0,0,1-.98-0.21,1.588,1.588,0,0,1-.67-0.616,2.433,2.433,0,0,1-.3-1.008h4.93a3.713,3.713,0,0,0,.07-0.742,3.9,3.9,0,0,0-.39-1.771,2.777,2.777,0,0,0-1.14-1.19,3.994,3.994,0,0,0-3.62.042,2.981,2.981,0,0,0-1.22,1.281,4.178,4.178,0,0,0-.42,1.918,4.232,4.232,0,0,0,.42,1.953,2.875,2.875,0,0,0,1.24,1.239,4.19,4.19,0,0,0,1.95.42A4.645,4.645,0,0,0,1296.8,166.038Zm2.6-.721a6.009,6.009,0,0,0,1.54.756,5.4,5.4,0,0,0,1.63.252,4.121,4.121,0,0,0,1.55-.273,2.186,2.186,0,0,0,1.02-.777,1.94,1.94,0,0,0,.35-1.162,2.038,2.038,0,0,0-.23-1.015,1.771,1.771,0,0,0-.72-0.707,4.957,4.957,0,0,0-1.43-.469,8.4,8.4,0,0,1-1.22-.3,0.972,0.972,0,0,1-.4-0.266,0.529,0.529,0,0,1-.13-0.364,0.5,0.5,0,0,1,.13-0.357,0.748,0.748,0,0,1,.36-0.224,1.863,1.863,0,0,1,.56-0.077,3.52,3.52,0,0,1,1.09.175,3.37,3.37,0,0,1,.97.5l0.64-1.176a4.644,4.644,0,0,0-1.26-.567,5.087,5.087,0,0,0-1.41-.2,3.924,3.924,0,0,0-1.46.252,2.121,2.121,0,0,0-.98.728,1.863,1.863,0,0,0-.35,1.12,2.076,2.076,0,0,0,.23.994,1.747,1.747,0,0,0,.71.7,4.837,4.837,0,0,0,1.42.476,10.061,10.061,0,0,1,1.22.3,1.049,1.049,0,0,1,.41.259,0.551,0.551,0,0,1,.13.378,0.613,0.613,0,0,1-.3.553,1.7,1.7,0,0,1-.89.189,3.736,3.736,0,0,1-1.27-.231,4.33,4.33,0,0,1-1.22-.679Zm7.99-4.7v3.472a3.328,3.328,0,0,0,.2,1.288,1.365,1.365,0,0,0,.64.721,2.6,2.6,0,0,0,1.19.231,4.519,4.519,0,0,0,.75-0.063,2.672,2.672,0,0,0,.63-0.175v-1.33a1.955,1.955,0,0,1-.43.112,3.478,3.478,0,0,1-.53.042,1.283,1.283,0,0,1-.34-0.035,0.476,0.476,0,0,1-.22-0.133,0.637,0.637,0,0,1-.13-0.224,1.478,1.478,0,0,1-.06-0.385c-0.02-.172-0.02-0.445-0.02-0.819v-2.7h1.73v-1.344h-1.73v-2.464l-1.68.336v2.128h-1.1v1.344h1.1Zm6.46,5.516v-2.324a5.911,5.911,0,0,1,.16-1.645,2.025,2.025,0,0,1,.5-0.861,1.458,1.458,0,0,1,.59-0.378,2.34,2.34,0,0,1,.8-0.126c0.14,0,.27.005,0.4,0.014v-1.722c-0.1-.009-0.23-0.014-0.38-0.014a2.163,2.163,0,0,0-1.2.35,2.978,2.978,0,0,0-.95,1.078h-0.02l-0.04-1.232h-1.58q0.03,1.344.03,2c0.01,0.439.01,0.938,0.01,1.5v3.36h1.68Zm3.65-7.8h1.7v-1.918h-1.7v1.918Zm1.69,7.8v-6.86h-1.68v6.86h1.68Zm2.13-.364a2.569,2.569,0,0,0,1.75.56,2.823,2.823,0,0,0,1.22-.259,2.5,2.5,0,0,0,.95-0.777h0.01l0.03,0.84h1.58c-0.03-1-.04-1.682-0.04-2.051v-2.527a2.325,2.325,0,0,0-.74-1.855,3.176,3.176,0,0,0-2.14-.637,4.51,4.51,0,0,0-1.7.322,4.221,4.221,0,0,0-1.41.938l0.81,1.008a2.911,2.911,0,0,1,.97-0.735,2.733,2.733,0,0,1,1.14-.245,1.511,1.511,0,0,1,1.03.315,1.154,1.154,0,0,1,.36.917v0.294a11.8,11.8,0,0,0-2,.147,4.578,4.578,0,0,0-1.39.448,2.172,2.172,0,0,0-.81.735,1.9,1.9,0,0,0-.27,1.022A1.935,1.935,0,0,0,1321.32,165.765Zm3.82-2.716v0.294a1.709,1.709,0,0,1-.21.833,1.638,1.638,0,0,1-.59.616,1.569,1.569,0,0,1-.84.231,1.186,1.186,0,0,1-.78-0.231,0.939,0.939,0,0,1-.14-1.162,0.939,0.939,0,0,1,.45-0.329,3.436,3.436,0,0,1,.83-0.189,10.787,10.787,0,0,1,1.28-.063h0Zm9.88,3.08v-4.256a2.99,2.99,0,0,0-.65-2.1,2.44,2.44,0,0,0-1.9-.714,2.761,2.761,0,0,0-1.28.294,2.22,2.22,0,0,0-.91.826h-0.02l-0.03-.91h-1.58c0.01,0.243.02,0.488,0.02,0.735s0.01,0.509.02,0.784v5.341h1.68v-3.374a4.169,4.169,0,0,1,.14-1.176,1.728,1.728,0,0,1,.44-0.756,1.279,1.279,0,0,1,.45-0.28,1.564,1.564,0,0,1,.6-0.112,1.439,1.439,0,0,1,.71.161,1.037,1.037,0,0,1,.45.469,1.9,1.9,0,0,1,.14.49,6.767,6.767,0,0,1,.04.938v3.64h1.68Zm5.71,0c1.1,0,2.19,0,3.29.014a7.323,7.323,0,0,0,2.29-.308,3.877,3.877,0,0,0,2.53-2.492,5.994,5.994,0,0,0,.34-2.03,5.543,5.543,0,0,0-.33-1.967,4.04,4.04,0,0,0-.95-1.5,3.992,3.992,0,0,0-1.59-.973,7.7,7.7,0,0,0-2.36-.3c-1.19,0-2.26,0-3.22.014v9.548Zm1.81-8.036c0.27-.009.72-0.014,1.36-0.014a5.339,5.339,0,0,1,1.54.168,2.322,2.322,0,0,1,.92.574,2.911,2.911,0,0,1,.66,1.078,4.224,4.224,0,0,1,.24,1.456,4.5,4.5,0,0,1-.22,1.484,2.66,2.66,0,0,1-.65,1.078,2.142,2.142,0,0,1-.87.539,5.155,5.155,0,0,1-1.51.161q-0.66,0-1.47-.042v-6.482Zm9.78,3.92a2.618,2.618,0,0,1,.28-0.91,1.415,1.415,0,0,1,.56-0.567,1.648,1.648,0,0,1,.8-0.189,1.492,1.492,0,0,1,.8.21,1.45,1.45,0,0,1,.54.588,2.006,2.006,0,0,1,.21.868h-3.19Zm3.44,4.025a4.108,4.108,0,0,0,1.4-.875l-0.72-1.064a2.776,2.776,0,0,1-.99.686,3.178,3.178,0,0,1-1.21.224,2.145,2.145,0,0,1-.98-0.21,1.648,1.648,0,0,1-.67-0.616,2.433,2.433,0,0,1-.3-1.008h4.93a3.1,3.1,0,0,0,.07-0.742,3.9,3.9,0,0,0-.39-1.771,2.721,2.721,0,0,0-1.14-1.19,3.564,3.564,0,0,0-1.77-.413,3.671,3.671,0,0,0-1.85.455,3.04,3.04,0,0,0-1.22,1.281,4.178,4.178,0,0,0-.42,1.918,4.11,4.11,0,0,0,.43,1.953,2.773,2.773,0,0,0,1.24,1.239,4.176,4.176,0,0,0,1.94.42A4.645,4.645,0,0,0,1355.76,166.038Zm3.44-5.425v3.472a3.328,3.328,0,0,0,.2,1.288,1.365,1.365,0,0,0,.64.721,2.6,2.6,0,0,0,1.19.231,4.519,4.519,0,0,0,.75-0.063,2.672,2.672,0,0,0,.63-0.175v-1.33a1.955,1.955,0,0,1-.43.112,3.478,3.478,0,0,1-.53.042,1.283,1.283,0,0,1-.34-0.035,0.476,0.476,0,0,1-.22-0.133,0.637,0.637,0,0,1-.13-0.224,1.478,1.478,0,0,1-.06-0.385c-0.02-.172-0.02-0.445-0.02-0.819v-2.7h1.73v-1.344h-1.73v-2.464l-1.68.336v2.128h-1.1v1.344h1.1Zm6.13,1.4a2.618,2.618,0,0,1,.28-0.91,1.415,1.415,0,0,1,.56-0.567,1.648,1.648,0,0,1,.8-0.189,1.468,1.468,0,0,1,.8.21,1.45,1.45,0,0,1,.54.588,2.006,2.006,0,0,1,.21.868h-3.19Zm3.45,4.025a4.2,4.2,0,0,0,1.4-.875l-0.73-1.064a2.776,2.776,0,0,1-.99.686,3.178,3.178,0,0,1-1.21.224,2.175,2.175,0,0,1-.98-0.21,1.648,1.648,0,0,1-.67-0.616,2.433,2.433,0,0,1-.3-1.008h4.93a3.1,3.1,0,0,0,.07-0.742,3.9,3.9,0,0,0-.39-1.771,2.755,2.755,0,0,0-1.13-1.19,3.63,3.63,0,0,0-1.78-.413,3.671,3.671,0,0,0-1.85.455,3.04,3.04,0,0,0-1.22,1.281,4.178,4.178,0,0,0-.42,1.918,4.11,4.11,0,0,0,.43,1.953,2.824,2.824,0,0,0,1.24,1.239,4.176,4.176,0,0,0,1.94.42A4.74,4.74,0,0,0,1368.78,166.038Zm7.74-2.317a2.007,2.007,0,0,1-.64.9,1.522,1.522,0,0,1-.96.3,1.478,1.478,0,0,1-.89-0.273,1.692,1.692,0,0,1-.58-0.784,3.092,3.092,0,0,1-.21-1.183,3.349,3.349,0,0,1,.2-1.2,1.6,1.6,0,0,1,.57-0.77,1.543,1.543,0,0,1,.87-0.259,1.474,1.474,0,0,1,.95.308,1.786,1.786,0,0,1,.59.9l1.53-.616a2.853,2.853,0,0,0-1.14-1.491,3.893,3.893,0,0,0-3.73-.042,2.936,2.936,0,0,0-1.2,1.281,4.176,4.176,0,0,0-.41,1.918,4.261,4.261,0,0,0,.4,1.911,2.79,2.79,0,0,0,1.17,1.26,3.656,3.656,0,0,0,1.83.441,3.42,3.42,0,0,0,1.9-.5,3.752,3.752,0,0,0,1.28-1.582Zm3.4-3.108v3.472a3.328,3.328,0,0,0,.2,1.288,1.365,1.365,0,0,0,.64.721,2.6,2.6,0,0,0,1.19.231,4.519,4.519,0,0,0,.75-0.063,2.672,2.672,0,0,0,.63-0.175v-1.33a1.955,1.955,0,0,1-.43.112,3.478,3.478,0,0,1-.53.042,1.283,1.283,0,0,1-.34-0.035,0.476,0.476,0,0,1-.22-0.133,0.637,0.637,0,0,1-.13-0.224,1.478,1.478,0,0,1-.06-0.385c-0.02-.172-0.02-0.445-0.02-0.819v-2.7h1.73v-1.344h-1.73v-2.464l-1.68.336v2.128h-1.1v1.344h1.1Zm4.75-2.282h1.71v-1.918h-1.71v1.918Zm1.7,7.8v-6.86h-1.68v6.86h1.68Zm8.19-5.369a2.877,2.877,0,0,0-1.21-1.26,4.169,4.169,0,0,0-3.76.014,3.148,3.148,0,0,0-1.24,1.281,4.057,4.057,0,0,0-.43,1.918,4.293,4.293,0,0,0,.41,1.925,2.889,2.889,0,0,0,1.21,1.253,3.9,3.9,0,0,0,1.88.434,3.773,3.773,0,0,0,1.88-.448,3.018,3.018,0,0,0,1.24-1.281,4.068,4.068,0,0,0,.44-1.911A4.167,4.167,0,0,0,1394.56,160.76Zm-1.57,3.1a1.775,1.775,0,0,1-.6.784,1.6,1.6,0,0,1-.94.28,1.58,1.58,0,0,1-.93-0.273,1.678,1.678,0,0,1-.61-0.784,3.051,3.051,0,0,1-.21-1.169,3,3,0,0,1,.21-1.162,1.781,1.781,0,0,1,.6-0.784,1.566,1.566,0,0,1,.94-0.28,1.625,1.625,0,0,1,.93.273,1.684,1.684,0,0,1,.61.777,3.041,3.041,0,0,1,.21,1.176A3,3,0,0,1,1392.99,163.861Zm9.87,2.268v-4.256a3.038,3.038,0,0,0-.65-2.1,2.454,2.454,0,0,0-1.9-.714,2.832,2.832,0,0,0-1.29.294,2.352,2.352,0,0,0-.91.826h-0.01l-0.03-.91h-1.58c0.01,0.243.02,0.488,0.02,0.735s0.01,0.509.01,0.784,0.01,0.577.01,0.9v4.438h1.68v-3.374a4.63,4.63,0,0,1,.13-1.176,1.746,1.746,0,0,1,.45-0.756,1.327,1.327,0,0,1,.44-0.28,1.654,1.654,0,0,1,.61-0.112,1.466,1.466,0,0,1,.71.161,1.091,1.091,0,0,1,.45.469,2.392,2.392,0,0,1,.14.49,6.767,6.767,0,0,1,.04.938v3.64h1.68Z" transform="translate(-1152.66 -156.25)"/>
</svg>
